<svg width="46" height="46" viewBox="0 0 46 46" fill="none" xmlns="http://www.w3.org/2000/svg">
<path fill-rule="evenodd" clip-rule="evenodd" d="M22.9999 42.1666C33.5854 42.1666 42.1666 33.5854 42.1666 23C42.1666 12.4145 33.5854 3.83331 22.9999 3.83331C12.4145 3.83331 3.83325 12.4145 3.83325 23C3.83325 33.5854 12.4145 42.1666 22.9999 42.1666ZM22.9999 12.5454C24.0519 12.5454 24.9046 13.3982 24.9046 14.4501V21.0953H31.5498C32.6017 21.0953 33.4545 21.948 33.4545 23C33.4545 24.0519 32.6017 24.9047 31.5498 24.9047H24.9046V31.5498C24.9046 32.6018 24.0519 33.4545 22.9999 33.4545C21.948 33.4545 21.0952 32.6018 21.0952 31.5498V24.9047H14.4501C13.3981 24.9047 12.5454 24.0519 12.5454 23C12.5454 21.948 13.3981 21.0953 14.4501 21.0953H21.0952V14.4501C21.0952 13.3982 21.948 12.5454 22.9999 12.5454Z" fill="#F47532"/>
</svg>
