<svg width="129" height="103" viewBox="0 0 129 103" fill="none" xmlns="http://www.w3.org/2000/svg">
<g filter="url(#filter0_d_119_23415)">
<path d="M60.8017 36.4795C61.0178 36.1541 61.4961 36.1541 61.7123 36.4795L62.755 38.0491C62.8276 38.1584 62.9371 38.2379 63.0636 38.2731L64.8805 38.7785C65.2571 38.8833 65.4049 39.3376 65.1619 39.6434L63.9894 41.1189C63.9078 41.2217 63.866 41.3503 63.8715 41.4813L63.9517 43.3633C63.9683 43.7534 63.5814 44.0342 63.2151 43.8979L61.4478 43.2402C61.3247 43.1944 61.1893 43.1944 61.0662 43.2402L59.2989 43.8979C58.9326 44.0342 58.5457 43.7534 58.5623 43.3633L58.6425 41.4813C58.648 41.3503 58.6062 41.2217 58.5246 41.1189L57.3521 39.6434C57.1091 39.3376 57.2569 38.8833 57.6335 38.7785L59.4504 38.2731C59.5768 38.2379 59.6864 38.1584 59.759 38.0491L60.8017 36.4795Z" fill="#FAEA61" fill-opacity="0.12"/>
<path d="M30.2667 7.99166C30.3667 7.75063 30.6869 7.68247 30.8764 7.86189L31.7905 8.72758C31.8541 8.78786 31.9384 8.82362 32.028 8.82833L33.3141 8.89601C33.5806 8.91003 33.7421 9.18256 33.6214 9.41481L33.0393 10.5354C32.9988 10.6134 32.9884 10.7025 33.0102 10.7864L33.3227 11.9911C33.3875 12.2408 33.167 12.4774 32.903 12.4415L31.6291 12.2683C31.5404 12.2563 31.4497 12.2756 31.3736 12.3227L30.2807 12.9996C30.0542 13.1399 29.7564 13.0136 29.7139 12.7592L29.5087 11.5316C29.4945 11.4461 29.4487 11.369 29.38 11.3142L28.392 10.5278C28.1872 10.3648 28.2237 10.0502 28.4614 9.92882L29.6085 9.34328C29.6884 9.30252 29.7508 9.23552 29.7844 9.15455L30.2667 7.99166Z" fill="#FAEA61"/>
<path d="M52.9417 15.8689C52.7789 16.2614 52.2572 16.3725 51.9486 16.0802L50.4598 14.6702C50.3561 14.572 50.2188 14.5138 50.0729 14.5061L47.9782 14.3959C47.544 14.373 47.281 13.9291 47.4775 13.5508L48.4257 11.7257C48.4917 11.5986 48.5086 11.4535 48.4731 11.3169L47.9641 9.35463C47.8586 8.94792 48.2177 8.56256 48.6478 8.62101L50.7226 8.90304C50.8671 8.92267 51.0148 8.89123 51.1388 8.81447L52.9189 7.71197C53.2879 7.48346 53.7728 7.68918 53.8421 8.10359L54.1763 10.103C54.1995 10.2423 54.274 10.368 54.386 10.4571L55.9953 11.738C56.3288 12.0035 56.2694 12.516 55.8821 12.7136L54.0138 13.6673C53.8837 13.7337 53.782 13.8429 53.7273 13.9747L52.9417 15.8689Z" fill="#FAEA61"/>
<path d="M18.7628 59.1009C18.8294 58.9403 19.0428 58.8949 19.169 59.0144L19.7778 59.5911C19.8202 59.6312 19.8764 59.655 19.936 59.6582L20.7927 59.7033C20.9702 59.7126 21.0778 59.8941 20.9974 60.0488L20.6097 60.7952C20.5827 60.8472 20.5758 60.9066 20.5903 60.9624L20.7984 61.7649C20.8416 61.9312 20.6947 62.0888 20.5189 62.0649L19.6703 61.9496C19.6113 61.9415 19.5509 61.9544 19.5002 61.9858L18.7722 62.4367C18.6213 62.5301 18.423 62.446 18.3946 62.2765L18.258 61.4588C18.2485 61.4019 18.218 61.3505 18.1722 61.314L17.5141 60.7902C17.3777 60.6816 17.402 60.4721 17.5604 60.3912L18.3244 60.0012C18.3776 59.974 18.4192 59.9294 18.4416 59.8755L18.7628 59.1009Z" fill="#FCF80D"/>
<path opacity="0.4" d="M12.6805 34.6664C12.6139 34.5059 12.4006 34.4605 12.2744 34.58L11.6655 35.1566C11.6231 35.1968 11.567 35.2206 11.5073 35.2237L10.6507 35.2688C10.4731 35.2782 10.3656 35.4597 10.4459 35.6144L10.8337 36.3608C10.8607 36.4128 10.8676 36.4721 10.8531 36.528L10.6449 37.3304C10.6018 37.4968 10.7486 37.6544 10.9245 37.6304L11.773 37.5151C11.8321 37.5071 11.8925 37.5199 11.9432 37.5513L12.6712 38.0022C12.8221 38.0957 13.0204 38.0115 13.0487 37.842L13.1854 37.0244C13.1949 36.9674 13.2254 36.916 13.2712 36.8796L13.9293 36.3558C14.0657 36.2472 14.0414 36.0376 13.883 35.9568L13.1189 35.5667C13.0658 35.5396 13.0242 35.495 13.0018 35.441L12.6805 34.6664Z" fill="#FCF80D"/>
<path d="M116.227 44.8129C116.294 44.6524 116.507 44.607 116.633 44.7265L117.242 45.3031C117.285 45.3433 117.341 45.3671 117.4 45.3702L118.257 45.4153C118.435 45.4246 118.542 45.6062 118.462 45.7609L118.074 46.5073C118.047 46.5592 118.04 46.6186 118.055 46.6745L118.263 47.4769C118.306 47.6432 118.159 47.8008 117.983 47.7769L117.135 47.6616C117.076 47.6536 117.015 47.6664 116.965 47.6978L116.237 48.1487C116.086 48.2421 115.887 48.158 115.859 47.9885L115.722 47.1709C115.713 47.1139 115.682 47.0625 115.637 47.026L114.978 46.5022C114.842 46.3937 114.866 46.1841 115.025 46.1033L115.789 45.7132C115.842 45.6861 115.884 45.6414 115.906 45.5875L116.227 44.8129Z" fill="#FCF80D" fill-opacity="0.6"/>
<path d="M103.69 15.2347C103.835 15.1357 104.04 15.2148 104.081 15.3853L104.278 16.2081C104.292 16.2653 104.326 16.3164 104.375 16.3519L105.074 16.8619C105.219 16.9676 105.21 17.1803 105.056 17.2667L104.318 17.684C104.266 17.713 104.228 17.7594 104.209 17.8146L103.943 18.6074C103.888 18.7718 103.677 18.8241 103.541 18.707L102.888 18.1421C102.842 18.1028 102.784 18.0804 102.724 18.079L101.86 18.059C101.681 18.0549 101.56 17.8746 101.63 17.7157L101.964 16.9494C101.988 16.896 101.99 16.8358 101.972 16.7798L101.704 15.9746C101.649 15.8077 101.785 15.6439 101.963 15.6628L102.824 15.7541C102.883 15.7604 102.943 15.7456 102.992 15.7124L103.69 15.2347Z" fill="#FCF80D"/>
<path d="M104.653 74.9559C104.504 75.0578 104.292 74.9763 104.25 74.8009L104.048 73.9544C104.034 73.8955 103.998 73.8429 103.948 73.8064L103.229 73.2817C103.08 73.1729 103.089 72.9541 103.247 72.8651L104.007 72.4359C104.06 72.406 104.1 72.3583 104.119 72.3015L104.392 71.4857C104.449 71.3166 104.666 71.2628 104.805 71.3833L105.478 71.9645C105.525 72.0049 105.585 72.028 105.646 72.0294L106.535 72.0499C106.719 72.0542 106.844 72.2398 106.773 72.4032L106.428 73.1917C106.404 73.2466 106.401 73.3085 106.421 73.3662L106.696 74.1947C106.753 74.3664 106.613 74.5348 106.43 74.5154L105.544 74.4215C105.482 74.415 105.421 74.4302 105.371 74.4644L104.653 74.9559Z" fill="#FCF80D"/>
<path d="M86.1957 68.2553C86.0411 67.8827 85.5461 67.7773 85.2532 68.0547L83.8403 69.3928C83.7419 69.486 83.6116 69.5413 83.4732 69.5485L81.4852 69.6531C81.0732 69.6748 80.8236 70.0961 81.0101 70.4551L81.91 72.1872C81.9726 72.3078 81.9886 72.4455 81.9549 72.5751L81.4719 74.4373C81.3717 74.8233 81.7126 75.189 82.1207 75.1335L84.0897 74.8659C84.2268 74.8473 84.367 74.8771 84.4846 74.9499L86.1741 75.9962C86.5242 76.2131 86.9844 76.0179 87.0501 75.6246L87.3673 73.7271C87.3893 73.595 87.46 73.4757 87.5663 73.391L89.0935 72.1755C89.4101 71.9236 89.3537 71.4372 88.9862 71.2496L87.2131 70.3445C87.0896 70.2815 86.9931 70.1779 86.9412 70.0528L86.1957 68.2553Z" fill="#FAEA61"/>
<path d="M44.985 74.615C44.7824 74.471 44.4894 74.578 44.4272 74.8186L44.1273 75.9798C44.1065 76.0606 44.0565 76.1321 43.9866 76.1812L42.9828 76.8864C42.7747 77.0326 42.7823 77.3343 42.9971 77.4607L44.0339 78.0707C44.106 78.1131 44.1594 78.1798 44.1843 78.2585L44.5415 79.389C44.6155 79.6233 44.9132 79.7027 45.1081 79.5402L46.0487 78.7561C46.1142 78.7015 46.1972 78.6712 46.2824 78.6707L47.507 78.6642C47.7608 78.6628 47.9373 78.4103 47.8429 78.1834L47.3875 77.0888C47.3558 77.0126 47.3536 76.9272 47.3815 76.8482L47.7811 75.7137C47.864 75.4785 47.6753 75.243 47.4221 75.2653L46.2 75.373C46.1149 75.3804 46.0306 75.358 45.9626 75.3096L44.985 74.615Z" fill="#FAEA61"/>
<g opacity="0.55">
<g opacity="0.55">
<path opacity="0.55" d="M98.4756 10.4252C98.7988 9.63974 98.3217 8.70022 97.4137 8.33057C96.5057 7.96093 95.5208 8.31517 95.1976 9.10067L95.0591 9.45492C94.7359 10.2404 95.2284 11.1337 96.1364 11.488C97.0444 11.8576 97.9985 11.565 98.3217 10.7641L98.4602 10.4406C98.4756 10.4406 98.4756 10.4406 98.4756 10.4252Z" fill="url(#paint0_linear_119_23415)"/>
<path opacity="0.55" d="M98.4756 10.4252C98.1525 11.2107 97.1675 11.565 96.2595 11.1953C95.3515 10.8257 94.8898 9.90157 95.1976 9.10067C95.5208 8.31517 96.5058 7.96093 97.4138 8.33057C98.3217 8.70022 98.7988 9.63974 98.4756 10.4252Z" fill="url(#paint1_linear_119_23415)"/>
<path opacity="0.55" d="M98.4295 10.3944C98.1217 11.1645 97.1675 11.4879 96.2903 11.1337C95.4131 10.7794 94.9514 9.87069 95.2592 9.116C95.567 8.3459 96.5212 8.02246 97.3984 8.37671C98.291 8.71555 98.7373 9.62426 98.4295 10.3944Z" fill="url(#paint2_linear_119_23415)"/>
<g opacity="0.55">
<g opacity="0.55">
<g opacity="0.3">
<path opacity="0.3" d="M97.9215 11.2569L95.2129 8.85418L95.5053 8.54614L98.2293 10.9642L97.9215 11.2569Z" fill="white"/>
</g>
<g opacity="0.25">
<path opacity="0.25" d="M97.7518 11.5494L95.0432 9.14665L95.1356 9.02344L97.8441 11.4261L97.7518 11.5494Z" fill="white"/>
</g>
<g opacity="0.25">
<path opacity="0.25" d="M98.9522 9.93224L96.2283 7.52954L96.3668 7.54494L99.0907 9.94765L98.9522 9.93224Z" fill="white"/>
</g>
</g>
</g>
<path opacity="0.55" d="M98.4756 10.4252C98.7988 9.63974 98.3217 8.70022 97.4137 8.33057C96.5057 7.96093 95.5208 8.31517 95.1976 9.10067L95.0591 9.45492C94.7359 10.2404 95.2284 11.1337 96.1364 11.488C97.0444 11.8576 97.9985 11.565 98.3217 10.7641L98.4602 10.4406C98.4756 10.4406 98.4756 10.4406 98.4756 10.4252Z" fill="url(#paint3_linear_119_23415)"/>
<path opacity="0.55" d="M96.4444 10.7639C95.7365 10.4713 95.4441 9.82439 95.6595 9.26992C95.8904 8.71545 96.5983 8.46902 97.2601 8.73085C97.9218 8.99268 98.2604 9.67037 98.0449 10.2248C97.8141 10.7947 97.1523 11.0565 96.4444 10.7639Z" fill="#FFF399"/>
<path opacity="0.55" d="M96.4598 10.7332C95.798 10.4713 95.444 9.80904 95.6749 9.25457C95.9057 8.7001 96.6137 8.46907 97.26 8.73091C97.9218 8.99274 98.2757 9.65502 98.0449 10.2095C97.8294 10.764 97.1215 10.995 96.4598 10.7332Z" fill="url(#paint4_linear_119_23415)"/>
<path opacity="0.55" d="M97.2292 8.82332C97.8601 9.08515 98.1987 9.74744 98.0294 10.2711C98.0448 10.2557 98.0448 10.2249 98.0602 10.2095C98.2757 9.65502 97.9217 8.99274 97.2753 8.73091C96.6136 8.46907 95.9057 8.7001 95.6902 9.25457C95.6748 9.26998 95.6748 9.30078 95.6748 9.31618C95.8903 8.80792 96.5982 8.56149 97.2292 8.82332Z" fill="url(#paint5_linear_119_23415)"/>
</g>
<path opacity="0.55" d="M96.4595 10.7332C95.7978 10.4713 95.4438 9.80904 95.6746 9.25457C95.9055 8.7001 96.6134 8.46907 97.2598 8.73091C97.9215 8.99274 98.2755 9.65502 98.0446 10.2095C97.8292 10.764 97.1213 10.995 96.4595 10.7332Z" fill="url(#paint6_linear_119_23415)"/>
<g style="mix-blend-mode:screen" opacity="0.55">
<path opacity="0.55" d="M95.9208 9.17752C95.7362 9.0081 95.7516 8.71546 95.9362 8.49983C96.1209 8.2842 96.4287 8.2534 96.6134 8.40742C96.7981 8.57684 96.7827 8.86948 96.598 9.0851C96.4133 9.30073 96.1055 9.33154 95.9208 9.17752Z" fill="url(#paint7_radial_119_23415)"/>
<path opacity="0.55" d="M97.029 10.7178C96.9982 10.7332 96.5981 9.79368 96.1518 8.62314C95.7055 7.45259 95.7824 7.545 95.5824 7.02134C95.3515 6.43606 95.8286 7.40638 96.2749 8.57693C96.7212 9.74748 97.0598 10.7024 97.029 10.7178Z" fill="url(#paint8_radial_119_23415)"/>
<path opacity="0.55" d="M94.3205 9.48559C94.3051 9.45478 95.2593 9.08514 96.4289 8.66928C97.5985 8.25343 97.5215 8.33044 98.0448 8.14562C98.6296 7.92999 97.6447 8.37665 96.475 8.8079C95.3054 9.20835 94.3359 9.51639 94.3205 9.48559Z" fill="url(#paint9_radial_119_23415)"/>
<path opacity="0.55" d="M95.3364 8.40755C95.3364 8.39215 95.7673 8.54617 96.2905 8.7618C96.8138 8.97743 97.2293 9.14685 97.2139 9.16225C97.2139 9.17765 96.783 9.02363 96.2597 8.808C95.7365 8.60778 95.321 8.42296 95.3364 8.40755Z" fill="url(#paint10_radial_119_23415)"/>
<path opacity="0.55" d="M95.8902 9.71668C95.8748 9.71668 96.0287 9.28543 96.2442 8.76176C96.4442 8.2381 96.6289 7.83765 96.6443 7.83765C96.6597 7.83765 96.5058 8.2689 96.2904 8.79257C96.0903 9.31623 95.9056 9.73209 95.8902 9.71668Z" fill="url(#paint11_radial_119_23415)"/>
<path opacity="0.55" d="M95.7363 8.99287C95.7055 8.90046 95.9056 8.73103 96.2133 8.62322C96.5058 8.51541 96.7828 8.50001 96.8135 8.59242C96.8443 8.68483 96.6443 8.85425 96.3365 8.96206C96.0441 9.06988 95.767 9.08528 95.7363 8.99287Z" fill="url(#paint12_radial_119_23415)"/>
<path opacity="0.55" d="M96.0289 8.26873C96.1212 8.22252 96.3059 8.42275 96.4444 8.69998C96.5829 8.99262 96.6137 9.25445 96.5213 9.30066C96.429 9.34687 96.2443 9.14664 96.1058 8.86941C95.9673 8.57677 95.9365 8.31494 96.0289 8.26873Z" fill="url(#paint13_radial_119_23415)"/>
<path opacity="0.55" d="M96.0285 8.68476C96.0439 8.63855 96.167 8.65396 96.3055 8.70016C96.4441 8.74637 96.5364 8.83878 96.5056 8.86958C96.4902 8.91579 96.3671 8.90039 96.2286 8.85418C96.1055 8.80797 96.0131 8.73097 96.0285 8.68476Z" fill="url(#paint14_radial_119_23415)"/>
<path opacity="0.55" d="M96.167 9.02355C96.1208 9.00815 96.1362 8.88493 96.1978 8.76172C96.2593 8.6385 96.3363 8.54609 96.3824 8.56149C96.4286 8.5769 96.4132 8.70011 96.3517 8.82333C96.2901 8.94654 96.2132 9.03895 96.167 9.02355Z" fill="url(#paint15_radial_119_23415)"/>
<path opacity="0.55" d="M97.1366 9.13136C96.9519 9.60882 96.4133 9.83985 95.9362 9.63963C95.4591 9.45481 95.2283 8.91574 95.4284 8.43828C95.613 7.96082 96.1671 7.72979 96.6288 7.93001C97.0905 8.11484 97.3213 8.6539 97.1366 9.13136Z" fill="url(#paint16_radial_119_23415)"/>
</g>
</g>
<path d="M81.8113 12.9112C82.1574 12.6026 82.7056 12.7376 82.8686 13.1718L83.5331 14.9415C83.5864 15.0836 83.6872 15.203 83.8183 15.2795L85.4509 16.2323C85.8515 16.4661 85.8924 17.0291 85.5298 17.3183L84.0521 18.4972C83.9334 18.5919 83.851 18.7246 83.8188 18.8729L83.4171 20.7201C83.3185 21.1732 82.7957 21.3861 82.4086 21.1307L80.8308 20.0896C80.7041 20.006 80.5524 19.9686 80.4014 19.9838L78.5205 20.1725C78.0591 20.2189 77.695 19.7874 77.8183 19.3403L78.3209 17.518C78.3613 17.3717 78.35 17.2159 78.2889 17.0769L77.5281 15.3464C77.3415 14.9219 77.6393 14.4423 78.1026 14.4215L79.991 14.3363C80.1427 14.3295 80.2873 14.2706 80.4006 14.1695L81.8113 12.9112Z" fill="url(#paint17_linear_119_23415)"/>
<path d="M78.2351 14.4155C78.817 14.661 79.6158 15.0948 80.3617 15.7623C81.6235 16.8913 83.6696 17.0842 85.1263 16.0432L83.8178 15.2795C83.6867 15.203 83.5859 15.0836 83.5326 14.9415L82.8681 13.1718C82.705 12.7376 82.1569 12.6026 81.8108 12.9112L80.4001 14.1695C80.2868 14.2706 80.1422 14.3295 79.9905 14.3363L78.2351 14.4155Z" fill="url(#paint18_linear_119_23415)"/>
<path d="M81.3343 13.7106C81.4622 13.5934 81.7562 13.344 81.9427 13.2592C82.3057 13.1657 82.0734 13.6836 81.9691 13.7886C81.8647 13.8936 81.5826 14.1901 81.2932 14.1972C81.0039 14.2044 81.1321 13.8961 81.3343 13.7106Z" fill="#FBEDA6"/>
<path d="M83.0551 20.3215C83.2449 19.9761 83.0194 19.8291 83.1883 19.6745C83.3458 19.5304 83.5183 19.8229 83.2585 20.45C83.2039 20.5819 82.9564 21.0326 82.7681 20.9567C82.6014 20.8894 82.9297 20.5499 83.0551 20.3215Z" fill="#FBEDA6"/>
<g filter="url(#filter1_f_119_23415)">
<circle cx="81.6285" cy="15.1854" r="0.406164" transform="rotate(13.8439 81.6285 15.1854)" fill="#FFFFB6" fill-opacity="0.4"/>
</g>
<circle cx="81.6276" cy="15.1852" r="0.203082" transform="rotate(13.8439 81.6276 15.1852)" fill="#FFFFB6"/>
<g filter="url(#filter2_f_119_23415)">
<circle cx="83.0993" cy="15.0511" r="0.177697" transform="rotate(13.8439 83.0993 15.0511)" fill="#FFFFB6" fill-opacity="0.4"/>
</g>
<circle cx="83.0994" cy="15.0511" r="0.0888483" transform="rotate(13.8439 83.0994 15.0511)" fill="#FFFFB6"/>
<g filter="url(#filter3_f_119_23415)">
<circle cx="79.4172" cy="16.732" r="0.253852" transform="rotate(13.8439 79.4172 16.732)" fill="#FFFFB6" fill-opacity="0.4"/>
</g>
<circle cx="79.4173" cy="16.7321" r="0.126926" transform="rotate(13.8439 79.4173 16.7321)" fill="#FFFFB6"/>
<g filter="url(#filter4_f_119_23415)">
<circle cx="82.5812" cy="18.636" r="0.177697" transform="rotate(13.8439 82.5812 18.636)" fill="#FFFFB6" fill-opacity="0.4"/>
</g>
<circle cx="82.5814" cy="18.636" r="0.0888483" transform="rotate(13.8439 82.5814 18.636)" fill="#FFFFB6"/>
<g filter="url(#filter5_f_119_23415)">
<circle cx="79.536" cy="17.2059" r="0.177697" transform="rotate(13.8439 79.536 17.2059)" fill="#FFFFB6" fill-opacity="0.4"/>
</g>
<circle cx="79.5362" cy="17.2059" r="0.0888483" transform="rotate(13.8439 79.5362 17.2059)" fill="#FFFFB6"/>
<path d="M63.6955 82.8913C63.7983 82.5749 64.1868 82.4604 64.4448 82.6705L65.4965 83.5266C65.5809 83.5954 65.6865 83.6329 65.7954 83.6329L67.1515 83.6329C67.4842 83.6329 67.7132 83.9669 67.5931 84.2772L67.1039 85.542C67.0646 85.6436 67.0615 85.7556 67.0951 85.8592L67.5143 87.1489C67.6171 87.4653 67.3701 87.7863 67.0379 87.768L65.6838 87.6935C65.5751 87.6875 65.4676 87.7192 65.3795 87.7832L64.2824 88.5804C64.0133 88.7759 63.6317 88.6403 63.5464 88.3187L63.1988 87.0079C63.1709 86.9026 63.1076 86.8102 63.0195 86.7461L61.9223 85.9491C61.6531 85.7535 61.6643 85.3487 61.9437 85.1682L63.083 84.4326C63.1745 84.3735 63.2428 84.2847 63.2765 84.1811L63.6955 82.8913Z" fill="url(#paint19_linear_119_23415)"/>
<path d="M62.0234 85.1165C62.4728 85.0581 63.1245 85.0381 63.8281 85.1819C65.0182 85.4252 66.3557 84.8048 66.8818 83.633L65.7948 83.633C65.6859 83.633 65.5804 83.5955 65.4959 83.5267L64.4442 82.6705C64.1862 82.4605 63.7977 82.575 63.695 82.8914L63.2759 84.1812C63.2423 84.2848 63.1739 84.3736 63.0825 84.4327L62.0234 85.1165Z" fill="url(#paint20_linear_119_23415)"/>
<path d="M63.6893 83.5589C63.7261 83.44 63.8181 83.1792 63.903 83.0593C64.094 82.87 64.1374 83.2749 64.1107 83.3777C64.0841 83.4805 64.0165 83.7663 63.8398 83.8753C63.6631 83.9844 63.631 83.747 63.6893 83.5589Z" fill="#FBEDA6"/>
<path d="M67.1455 87.0329C67.1382 86.7502 66.9453 86.7408 66.9941 86.5839C67.0395 86.4376 67.2522 86.5565 67.318 87.039C67.3319 87.1404 67.3415 87.5092 67.1974 87.5302C67.0698 87.5488 67.1504 87.2197 67.1455 87.0329Z" fill="#FBEDA6"/>
<g filter="url(#filter6_f_119_23415)">
<circle cx="64.4046" cy="84.3664" r="0.29138" transform="rotate(-16.4264 64.4046 84.3664)" fill="#FFFFB6" fill-opacity="0.4"/>
</g>
<circle cx="64.4046" cy="84.3662" r="0.14569" transform="rotate(-16.4264 64.4046 84.3662)" fill="#FFFFB6"/>
<g filter="url(#filter7_f_119_23415)">
<circle cx="65.2679" cy="83.7509" r="0.127479" transform="rotate(-16.4264 65.2679 83.7509)" fill="#FFFFB6" fill-opacity="0.4"/>
</g>
<circle cx="65.2681" cy="83.7508" r="0.0637393" transform="rotate(-16.4264 65.2681 83.7508)" fill="#FFFFB6"/>
<g filter="url(#filter8_f_119_23415)">
<circle cx="63.5936" cy="86.1243" r="0.182112" transform="rotate(-16.4264 63.5936 86.1243)" fill="#FFFFB6" fill-opacity="0.4"/>
</g>
<circle cx="63.594" cy="86.1241" r="0.0910562" transform="rotate(-16.4264 63.594 86.1241)" fill="#FFFFB6"/>
<g filter="url(#filter9_f_119_23415)">
<circle cx="66.2428" cy="86.1598" r="0.127479" transform="rotate(-16.4264 66.2428 86.1598)" fill="#FFFFB6" fill-opacity="0.4"/>
</g>
<circle cx="66.2427" cy="86.1597" r="0.0637393" transform="rotate(-16.4264 66.2427 86.1597)" fill="#FFFFB6"/>
<g filter="url(#filter10_f_119_23415)">
<circle cx="63.8397" cy="86.3746" r="0.127479" transform="rotate(-16.4264 63.8397 86.3746)" fill="#FFFFB6" fill-opacity="0.4"/>
</g>
<circle cx="63.8397" cy="86.3744" r="0.0637393" transform="rotate(-16.4264 63.8397 86.3744)" fill="#FFFFB6"/>
<path d="M30.2933 18.815C30.351 18.3549 30.8528 18.0963 31.2611 18.3162L32.9254 19.2125C33.0591 19.2845 33.2135 19.3082 33.3626 19.2796L35.2192 18.924C35.6746 18.8367 36.0757 19.234 35.9927 19.6903L35.6545 21.5501C35.6274 21.6995 35.6525 21.8536 35.7258 21.9866L36.6378 23.6424C36.8615 24.0486 36.6076 24.5528 36.148 24.6149L34.2747 24.868C34.1242 24.8883 33.9854 24.9599 33.8816 25.0707L32.5886 26.4497C32.2714 26.788 31.7134 26.7023 31.5124 26.2844L30.6928 24.581C30.627 24.4442 30.516 24.3343 30.3786 24.2697L28.6675 23.4662C28.2477 23.2691 28.1568 22.7119 28.4921 22.3916L29.8589 21.0857C29.9687 20.9808 30.0389 20.8413 30.0578 20.6907L30.2933 18.815Z" fill="url(#paint21_linear_119_23415)"/>
<path d="M28.5879 22.2995C29.1878 22.1018 30.0748 21.9034 31.0758 21.9158C32.7688 21.9368 34.4372 20.7367 34.8502 18.9945L33.3621 19.2796C33.213 19.3082 33.0586 19.2844 32.925 19.2125L31.2607 18.3161C30.8524 18.0962 30.3506 18.3549 30.2928 18.815L30.0574 20.6906C30.0385 20.8413 29.9682 20.9808 29.8584 21.0856L28.5879 22.2995Z" fill="url(#paint22_linear_119_23415)"/>
<path d="M30.4594 19.7306C30.4786 19.5582 30.5361 19.177 30.6209 18.9905C30.8328 18.6813 30.9984 19.2243 30.9889 19.372C30.9793 19.5197 30.9617 19.9287 30.7484 20.1243C30.5351 20.3199 30.429 20.0034 30.4594 19.7306Z" fill="#FBEDA6"/>
<path d="M36.1029 23.5798C36.0187 23.1948 35.7522 23.2324 35.7778 23.0048C35.8017 22.7926 36.124 22.8996 36.3407 23.5429C36.3862 23.6781 36.4962 24.1804 36.3043 24.2471C36.1346 24.306 36.1586 23.8343 36.1029 23.5798Z" fill="#FBEDA6"/>
<g filter="url(#filter11_f_119_23415)">
<circle cx="31.6506" cy="20.6486" r="0.406164" transform="rotate(-27.2698 31.6506 20.6486)" fill="#FFFFB6" fill-opacity="0.4"/>
</g>
<circle cx="31.6503" cy="20.6489" r="0.203082" transform="rotate(-27.2698 31.6503 20.6489)" fill="#FFFFB6"/>
<g filter="url(#filter12_f_119_23415)">
<circle cx="32.6705" cy="19.5802" r="0.177697" transform="rotate(-27.2698 32.6705 19.5802)" fill="#FFFFB6" fill-opacity="0.4"/>
</g>
<circle cx="32.6707" cy="19.5801" r="0.0888483" transform="rotate(-27.2698 32.6707 19.5801)" fill="#FFFFB6"/>
<g filter="url(#filter13_f_119_23415)">
<circle cx="31.0019" cy="23.2678" r="0.253852" transform="rotate(-27.2698 31.0019 23.2678)" fill="#FFFFB6" fill-opacity="0.4"/>
</g>
<circle cx="31.002" cy="23.2677" r="0.126926" transform="rotate(-27.2698 31.002 23.2677)" fill="#FFFFB6"/>
<g filter="url(#filter14_f_119_23415)">
<circle cx="34.6376" cy="22.6216" r="0.177697" transform="rotate(-27.2698 34.6376 22.6216)" fill="#FFFFB6" fill-opacity="0.4"/>
</g>
<circle cx="34.6375" cy="22.6215" r="0.0888483" transform="rotate(-27.2698 34.6375 22.6215)" fill="#FFFFB6"/>
<g filter="url(#filter15_f_119_23415)">
<circle cx="31.4029" cy="23.5465" r="0.177697" transform="rotate(-27.2698 31.4029 23.5465)" fill="#FFFFB6" fill-opacity="0.4"/>
</g>
<circle cx="31.4031" cy="23.5464" r="0.0888483" transform="rotate(-27.2698 31.4031 23.5464)" fill="#FFFFB6"/>
<path d="M43.9377 75.6707C43.9042 75.3999 44.1531 75.1798 44.4178 75.2463L45.4967 75.5173C45.5833 75.5391 45.6748 75.5303 45.7557 75.4925L46.7635 75.0215C47.0107 74.9059 47.2968 75.0746 47.3154 75.3469L47.3911 76.4567C47.3972 76.5458 47.4338 76.6301 47.4948 76.6954L48.2541 77.5083C48.4404 77.7077 48.3684 78.032 48.1152 78.1337L47.0831 78.5487C47.0002 78.582 46.9313 78.6429 46.8881 78.721L46.3497 79.6944C46.2176 79.9332 45.8869 79.9649 45.7119 79.7556L44.9983 78.9022C44.941 78.8337 44.8618 78.787 44.7741 78.77L43.682 78.5587C43.4141 78.5069 43.2817 78.2022 43.4268 77.971L44.0179 77.0287C44.0653 76.953 44.0853 76.8633 44.0743 76.7747L43.9377 75.6707Z" fill="url(#paint23_linear_119_23415)"/>
<path d="M43.4681 77.9045C43.7818 77.705 44.2591 77.4638 44.8319 77.3263C45.8007 77.0938 46.5791 76.1682 46.5631 75.1148L45.7554 75.4923C45.6745 75.5301 45.583 75.5389 45.4964 75.5171L44.4175 75.2461C44.1528 75.1796 43.904 75.3997 43.9375 75.6705L44.074 76.7744C44.085 76.8631 44.065 76.9528 44.0176 77.0285L43.4681 77.9045Z" fill="url(#paint24_linear_119_23415)"/>
<path d="M44.1644 76.169C44.1505 76.0678 44.1283 75.842 44.1497 75.7234C44.2259 75.5165 44.3988 75.8023 44.4147 75.8879C44.4306 75.9736 44.4796 76.2094 44.3861 76.3518C44.2927 76.4942 44.1864 76.3289 44.1644 76.169Z" fill="#FBEDA6"/>
<path d="M47.9398 77.5496C47.8362 77.3421 47.6896 77.4021 47.6713 77.2686C47.6543 77.144 47.8536 77.1586 48.0701 77.4942C48.1156 77.5648 48.2508 77.8355 48.151 77.9012C48.0627 77.9593 48.0083 77.6868 47.9398 77.5496Z" fill="#FBEDA6"/>
<g filter="url(#filter16_f_119_23415)">
<circle cx="44.977" cy="76.5205" r="0.239007" transform="rotate(-41.4759 44.977 76.5205)" fill="#FFFFB6" fill-opacity="0.4"/>
</g>
<circle cx="44.977" cy="76.5206" r="0.119503" transform="rotate(-41.4759 44.977 76.5206)" fill="#FFFFB6"/>
<g filter="url(#filter17_f_119_23415)">
<circle cx="45.4042" cy="75.7637" r="0.104565" transform="rotate(-41.4759 45.4042 75.7637)" fill="#FFFFB6" fill-opacity="0.4"/>
</g>
<circle cx="45.4046" cy="75.7637" r="0.0526151" transform="rotate(-41.4759 45.4046 75.7637)" fill="#FFFFB6"/>
<g filter="url(#filter18_f_119_23415)">
<circle cx="44.9845" cy="78.1082" r="0.149379" transform="rotate(-41.4759 44.9845 78.1082)" fill="#FFFFB6" fill-opacity="0.4"/>
</g>
<circle cx="44.9846" cy="78.1082" r="0.0746896" transform="rotate(-41.4759 44.9846 78.1082)" fill="#FFFFB6"/>
<g filter="url(#filter19_f_119_23415)">
<circle cx="46.966" cy="77.2145" r="0.104565" transform="rotate(-41.4759 46.966 77.2145)" fill="#FFFFB6" fill-opacity="0.4"/>
</g>
<circle cx="46.9664" cy="77.2144" r="0.0526151" transform="rotate(-41.4759 46.9664 77.2144)" fill="#FFFFB6"/>
<g filter="url(#filter20_f_119_23415)">
<circle cx="45.254" cy="78.2094" r="0.104565" transform="rotate(-41.4759 45.254 78.2094)" fill="#FFFFB6" fill-opacity="0.4"/>
</g>
<circle cx="45.2547" cy="78.2093" r="0.0526151" transform="rotate(-41.4759 45.2547 78.2093)" fill="#FFFFB6"/>
</g>
<defs>
<filter id="filter0_d_119_23415" x="0.418945" y="0.845825" width="128.07" height="101.825" filterUnits="userSpaceOnUse" color-interpolation-filters="sRGB">
<feFlood flood-opacity="0" result="BackgroundImageFix"/>
<feColorMatrix in="SourceAlpha" type="matrix" values="0 0 0 0 0 0 0 0 0 0 0 0 0 0 0 0 0 0 127 0" result="hardAlpha"/>
<feOffset dy="4"/>
<feGaussianBlur stdDeviation="5"/>
<feComposite in2="hardAlpha" operator="out"/>
<feColorMatrix type="matrix" values="0 0 0 0 0 0 0 0 0 0 0 0 0 0 0 0 0 0 0.6 0"/>
<feBlend mode="normal" in2="BackgroundImageFix" result="effect1_dropShadow_119_23415"/>
<feBlend mode="normal" in="SourceGraphic" in2="effect1_dropShadow_119_23415" result="shape"/>
</filter>
<filter id="filter1_f_119_23415" x="77.2222" y="10.7792" width="8.8125" height="8.8125" filterUnits="userSpaceOnUse" color-interpolation-filters="sRGB">
<feFlood flood-opacity="0" result="BackgroundImageFix"/>
<feBlend mode="normal" in="SourceGraphic" in2="BackgroundImageFix" result="shape"/>
<feGaussianBlur stdDeviation="2" result="effect1_foregroundBlur_119_23415"/>
</filter>
<filter id="filter2_f_119_23415" x="78.9216" y="10.8734" width="8.35547" height="8.35547" filterUnits="userSpaceOnUse" color-interpolation-filters="sRGB">
<feFlood flood-opacity="0" result="BackgroundImageFix"/>
<feBlend mode="normal" in="SourceGraphic" in2="BackgroundImageFix" result="shape"/>
<feGaussianBlur stdDeviation="2" result="effect1_foregroundBlur_119_23415"/>
</filter>
<filter id="filter3_f_119_23415" x="75.1633" y="12.4781" width="8.50781" height="8.50781" filterUnits="userSpaceOnUse" color-interpolation-filters="sRGB">
<feFlood flood-opacity="0" result="BackgroundImageFix"/>
<feBlend mode="normal" in="SourceGraphic" in2="BackgroundImageFix" result="shape"/>
<feGaussianBlur stdDeviation="2" result="effect1_foregroundBlur_119_23415"/>
</filter>
<filter id="filter4_f_119_23415" x="78.4036" y="14.4583" width="8.35547" height="8.35547" filterUnits="userSpaceOnUse" color-interpolation-filters="sRGB">
<feFlood flood-opacity="0" result="BackgroundImageFix"/>
<feBlend mode="normal" in="SourceGraphic" in2="BackgroundImageFix" result="shape"/>
<feGaussianBlur stdDeviation="2" result="effect1_foregroundBlur_119_23415"/>
</filter>
<filter id="filter5_f_119_23415" x="75.3584" y="13.0282" width="8.35547" height="8.35547" filterUnits="userSpaceOnUse" color-interpolation-filters="sRGB">
<feFlood flood-opacity="0" result="BackgroundImageFix"/>
<feBlend mode="normal" in="SourceGraphic" in2="BackgroundImageFix" result="shape"/>
<feGaussianBlur stdDeviation="2" result="effect1_foregroundBlur_119_23415"/>
</filter>
<filter id="filter6_f_119_23415" x="60.113" y="80.075" width="8.58301" height="8.58289" filterUnits="userSpaceOnUse" color-interpolation-filters="sRGB">
<feFlood flood-opacity="0" result="BackgroundImageFix"/>
<feBlend mode="normal" in="SourceGraphic" in2="BackgroundImageFix" result="shape"/>
<feGaussianBlur stdDeviation="2" result="effect1_foregroundBlur_119_23415"/>
</filter>
<filter id="filter7_f_119_23415" x="61.1404" y="79.6234" width="8.25513" height="8.255" filterUnits="userSpaceOnUse" color-interpolation-filters="sRGB">
<feFlood flood-opacity="0" result="BackgroundImageFix"/>
<feBlend mode="normal" in="SourceGraphic" in2="BackgroundImageFix" result="shape"/>
<feGaussianBlur stdDeviation="2" result="effect1_foregroundBlur_119_23415"/>
</filter>
<filter id="filter8_f_119_23415" x="59.4114" y="81.9421" width="8.3645" height="8.36426" filterUnits="userSpaceOnUse" color-interpolation-filters="sRGB">
<feFlood flood-opacity="0" result="BackgroundImageFix"/>
<feBlend mode="normal" in="SourceGraphic" in2="BackgroundImageFix" result="shape"/>
<feGaussianBlur stdDeviation="2" result="effect1_foregroundBlur_119_23415"/>
</filter>
<filter id="filter9_f_119_23415" x="62.1152" y="82.0323" width="8.25513" height="8.255" filterUnits="userSpaceOnUse" color-interpolation-filters="sRGB">
<feFlood flood-opacity="0" result="BackgroundImageFix"/>
<feBlend mode="normal" in="SourceGraphic" in2="BackgroundImageFix" result="shape"/>
<feGaussianBlur stdDeviation="2" result="effect1_foregroundBlur_119_23415"/>
</filter>
<filter id="filter10_f_119_23415" x="59.7122" y="82.2471" width="8.25513" height="8.255" filterUnits="userSpaceOnUse" color-interpolation-filters="sRGB">
<feFlood flood-opacity="0" result="BackgroundImageFix"/>
<feBlend mode="normal" in="SourceGraphic" in2="BackgroundImageFix" result="shape"/>
<feGaussianBlur stdDeviation="2" result="effect1_foregroundBlur_119_23415"/>
</filter>
<filter id="filter11_f_119_23415" x="27.2444" y="16.2423" width="8.8125" height="8.8125" filterUnits="userSpaceOnUse" color-interpolation-filters="sRGB">
<feFlood flood-opacity="0" result="BackgroundImageFix"/>
<feBlend mode="normal" in="SourceGraphic" in2="BackgroundImageFix" result="shape"/>
<feGaussianBlur stdDeviation="2" result="effect1_foregroundBlur_119_23415"/>
</filter>
<filter id="filter12_f_119_23415" x="28.4927" y="15.4025" width="8.35547" height="8.35547" filterUnits="userSpaceOnUse" color-interpolation-filters="sRGB">
<feFlood flood-opacity="0" result="BackgroundImageFix"/>
<feBlend mode="normal" in="SourceGraphic" in2="BackgroundImageFix" result="shape"/>
<feGaussianBlur stdDeviation="2" result="effect1_foregroundBlur_119_23415"/>
</filter>
<filter id="filter13_f_119_23415" x="26.748" y="19.0139" width="8.50781" height="8.50781" filterUnits="userSpaceOnUse" color-interpolation-filters="sRGB">
<feFlood flood-opacity="0" result="BackgroundImageFix"/>
<feBlend mode="normal" in="SourceGraphic" in2="BackgroundImageFix" result="shape"/>
<feGaussianBlur stdDeviation="2" result="effect1_foregroundBlur_119_23415"/>
</filter>
<filter id="filter14_f_119_23415" x="30.4597" y="18.4438" width="8.35547" height="8.35547" filterUnits="userSpaceOnUse" color-interpolation-filters="sRGB">
<feFlood flood-opacity="0" result="BackgroundImageFix"/>
<feBlend mode="normal" in="SourceGraphic" in2="BackgroundImageFix" result="shape"/>
<feGaussianBlur stdDeviation="2" result="effect1_foregroundBlur_119_23415"/>
</filter>
<filter id="filter15_f_119_23415" x="27.2251" y="19.3688" width="8.35547" height="8.35547" filterUnits="userSpaceOnUse" color-interpolation-filters="sRGB">
<feFlood flood-opacity="0" result="BackgroundImageFix"/>
<feBlend mode="normal" in="SourceGraphic" in2="BackgroundImageFix" result="shape"/>
<feGaussianBlur stdDeviation="2" result="effect1_foregroundBlur_119_23415"/>
</filter>
<filter id="filter16_f_119_23415" x="40.738" y="72.2815" width="8.47803" height="8.47803" filterUnits="userSpaceOnUse" color-interpolation-filters="sRGB">
<feFlood flood-opacity="0" result="BackgroundImageFix"/>
<feBlend mode="normal" in="SourceGraphic" in2="BackgroundImageFix" result="shape"/>
<feGaussianBlur stdDeviation="2" result="effect1_foregroundBlur_119_23415"/>
</filter>
<filter id="filter17_f_119_23415" x="41.2996" y="71.6592" width="8.20923" height="8.20911" filterUnits="userSpaceOnUse" color-interpolation-filters="sRGB">
<feFlood flood-opacity="0" result="BackgroundImageFix"/>
<feBlend mode="normal" in="SourceGraphic" in2="BackgroundImageFix" result="shape"/>
<feGaussianBlur stdDeviation="2" result="effect1_foregroundBlur_119_23415"/>
</filter>
<filter id="filter18_f_119_23415" x="40.8352" y="73.9589" width="8.29883" height="8.29871" filterUnits="userSpaceOnUse" color-interpolation-filters="sRGB">
<feFlood flood-opacity="0" result="BackgroundImageFix"/>
<feBlend mode="normal" in="SourceGraphic" in2="BackgroundImageFix" result="shape"/>
<feGaussianBlur stdDeviation="2" result="effect1_foregroundBlur_119_23415"/>
</filter>
<filter id="filter19_f_119_23415" x="42.8613" y="73.11" width="8.20923" height="8.20911" filterUnits="userSpaceOnUse" color-interpolation-filters="sRGB">
<feFlood flood-opacity="0" result="BackgroundImageFix"/>
<feBlend mode="normal" in="SourceGraphic" in2="BackgroundImageFix" result="shape"/>
<feGaussianBlur stdDeviation="2" result="effect1_foregroundBlur_119_23415"/>
</filter>
<filter id="filter20_f_119_23415" x="41.1494" y="74.1049" width="8.20923" height="8.20911" filterUnits="userSpaceOnUse" color-interpolation-filters="sRGB">
<feFlood flood-opacity="0" result="BackgroundImageFix"/>
<feBlend mode="normal" in="SourceGraphic" in2="BackgroundImageFix" result="shape"/>
<feGaussianBlur stdDeviation="2" result="effect1_foregroundBlur_119_23415"/>
</filter>
<linearGradient id="paint0_linear_119_23415" x1="95.1553" y1="9.25824" x2="98.4216" y2="10.5739" gradientUnits="userSpaceOnUse">
<stop stop-color="#E8A928"/>
<stop offset="0.4" stop-color="#C8690F"/>
<stop offset="0.6" stop-color="#C8690F"/>
<stop offset="0.9622" stop-color="#F8C935"/>
</linearGradient>
<linearGradient id="paint1_linear_119_23415" x1="97.4246" y1="8.33671" x2="96.2671" y2="11.2058" gradientUnits="userSpaceOnUse">
<stop stop-color="#F8E765"/>
<stop offset="1" stop-color="#F2B52D" stop-opacity="0.8"/>
</linearGradient>
<linearGradient id="paint2_linear_119_23415" x1="97.411" y1="8.37044" x2="96.2963" y2="11.1335" gradientUnits="userSpaceOnUse">
<stop stop-color="#FFFF82"/>
<stop offset="1" stop-color="#FFD83B"/>
</linearGradient>
<linearGradient id="paint3_linear_119_23415" x1="95.5386" y1="11.3224" x2="97.9257" y2="8.66927" gradientUnits="userSpaceOnUse">
<stop offset="0.2162" stop-color="#FFF37D" stop-opacity="0"/>
<stop offset="0.6703" stop-color="white" stop-opacity="0.7"/>
<stop offset="1" stop-color="#FFF37D" stop-opacity="0"/>
</linearGradient>
<linearGradient id="paint4_linear_119_23415" x1="97.2633" y1="8.73757" x2="96.4578" y2="10.7341" gradientUnits="userSpaceOnUse">
<stop stop-color="#F8E253"/>
<stop offset="1" stop-color="#F7C332"/>
</linearGradient>
<linearGradient id="paint5_linear_119_23415" x1="96.8367" y1="9.79642" x2="97.2638" y2="8.73781" gradientUnits="userSpaceOnUse">
<stop stop-color="#F8C935"/>
<stop offset="1" stop-color="#C8690F"/>
</linearGradient>
<linearGradient id="paint6_linear_119_23415" x1="96.1241" y1="10.5562" x2="97.5989" y2="8.91709" gradientUnits="userSpaceOnUse">
<stop offset="0.2162" stop-color="#FFF37D" stop-opacity="0"/>
<stop offset="0.2916" stop-color="#FFF381" stop-opacity="0.0879871"/>
<stop offset="0.3668" stop-color="#FFF48D" stop-opacity="0.1758"/>
<stop offset="0.442" stop-color="#FFF6A1" stop-opacity="0.2635"/>
<stop offset="0.5172" stop-color="#FFF9BD" stop-opacity="0.3513"/>
<stop offset="0.5918" stop-color="#FFFCE1" stop-opacity="0.4383"/>
<stop offset="0.6446" stop-color="white" stop-opacity="0.5"/>
<stop offset="0.676" stop-color="#FFFDED" stop-opacity="0.4497"/>
<stop offset="0.7672" stop-color="#FFF9BD" stop-opacity="0.3035"/>
<stop offset="0.8478" stop-color="#FFF69A" stop-opacity="0.1745"/>
<stop offset="0.9137" stop-color="#FFF485" stop-opacity="0.0689794"/>
<stop offset="0.9568" stop-color="#FFF37D" stop-opacity="0"/>
</linearGradient>
<radialGradient id="paint7_radial_119_23415" cx="0" cy="0" r="1" gradientUnits="userSpaceOnUse" gradientTransform="translate(96.2718 8.78599) rotate(131.902) scale(0.518554 0.444676)">
<stop offset="0.002273" stop-color="#FBB040"/>
<stop offset="0.0545528" stop-color="#E09D39"/>
<stop offset="0.1793" stop-color="#A6742A"/>
<stop offset="0.3039" stop-color="#73511D"/>
<stop offset="0.4256" stop-color="#4A3413"/>
<stop offset="0.5436" stop-color="#2A1D0B"/>
<stop offset="0.657" stop-color="#130D05"/>
<stop offset="0.7638" stop-color="#050301"/>
<stop offset="0.8571"/>
</radialGradient>
<radialGradient id="paint8_radial_119_23415" cx="0" cy="0" r="1" gradientUnits="userSpaceOnUse" gradientTransform="translate(96.2801 8.78269) rotate(69.0448) scale(2.16835 0.0643058)">
<stop offset="0.002273" stop-color="#FBB040"/>
<stop offset="0.0545528" stop-color="#E09D39"/>
<stop offset="0.1793" stop-color="#A6742A"/>
<stop offset="0.3039" stop-color="#73511D"/>
<stop offset="0.4256" stop-color="#4A3413"/>
<stop offset="0.5436" stop-color="#2A1D0B"/>
<stop offset="0.657" stop-color="#130D05"/>
<stop offset="0.7638" stop-color="#050301"/>
<stop offset="0.8571"/>
</radialGradient>
<radialGradient id="paint9_radial_119_23415" cx="0" cy="0" r="1" gradientUnits="userSpaceOnUse" gradientTransform="translate(96.2752 8.79464) rotate(160.453) scale(2.17024 0.0642382)">
<stop offset="0.002273" stop-color="#FBB040"/>
<stop offset="0.0545528" stop-color="#E09D39"/>
<stop offset="0.1793" stop-color="#A6742A"/>
<stop offset="0.3039" stop-color="#73511D"/>
<stop offset="0.4256" stop-color="#4A3413"/>
<stop offset="0.5436" stop-color="#2A1D0B"/>
<stop offset="0.657" stop-color="#130D05"/>
<stop offset="0.7638" stop-color="#050301"/>
<stop offset="0.8571"/>
</radialGradient>
<radialGradient id="paint10_radial_119_23415" cx="0" cy="0" r="1" gradientUnits="userSpaceOnUse" gradientTransform="translate(96.2719 8.78621) rotate(-158.012) scale(1.0104 0.0298807)">
<stop offset="0.002273" stop-color="#FBB040"/>
<stop offset="0.0545528" stop-color="#E09D39"/>
<stop offset="0.1793" stop-color="#A6742A"/>
<stop offset="0.3039" stop-color="#73511D"/>
<stop offset="0.4256" stop-color="#4A3413"/>
<stop offset="0.5436" stop-color="#2A1D0B"/>
<stop offset="0.657" stop-color="#130D05"/>
<stop offset="0.7638" stop-color="#050301"/>
<stop offset="0.8571"/>
</radialGradient>
<radialGradient id="paint11_radial_119_23415" cx="0" cy="0" r="1" gradientUnits="userSpaceOnUse" gradientTransform="translate(96.2718 8.78617) rotate(111.833) scale(1.01037 0.0300285)">
<stop offset="0.002273" stop-color="#FBB040"/>
<stop offset="0.0545528" stop-color="#E09D39"/>
<stop offset="0.1793" stop-color="#A6742A"/>
<stop offset="0.3039" stop-color="#73511D"/>
<stop offset="0.4256" stop-color="#4A3413"/>
<stop offset="0.5436" stop-color="#2A1D0B"/>
<stop offset="0.657" stop-color="#130D05"/>
<stop offset="0.7638" stop-color="#050301"/>
<stop offset="0.8571"/>
</radialGradient>
<radialGradient id="paint12_radial_119_23415" cx="0" cy="0" r="1" gradientUnits="userSpaceOnUse" gradientTransform="translate(96.2718 8.78629) rotate(159.491) scale(0.574902 0.186268)">
<stop offset="0.002273" stop-color="#FBB040"/>
<stop offset="0.0545528" stop-color="#E09D39"/>
<stop offset="0.1793" stop-color="#A6742A"/>
<stop offset="0.3039" stop-color="#73511D"/>
<stop offset="0.4256" stop-color="#4A3413"/>
<stop offset="0.5436" stop-color="#2A1D0B"/>
<stop offset="0.657" stop-color="#130D05"/>
<stop offset="0.7638" stop-color="#050301"/>
<stop offset="0.8571"/>
</radialGradient>
<radialGradient id="paint13_radial_119_23415" cx="0" cy="0" r="1" gradientUnits="userSpaceOnUse" gradientTransform="translate(96.272 8.78608) rotate(-115.65) scale(0.575225 0.186138)">
<stop offset="0.002273" stop-color="#FBB040"/>
<stop offset="0.0545528" stop-color="#E09D39"/>
<stop offset="0.1793" stop-color="#A6742A"/>
<stop offset="0.3039" stop-color="#73511D"/>
<stop offset="0.4256" stop-color="#4A3413"/>
<stop offset="0.5436" stop-color="#2A1D0B"/>
<stop offset="0.657" stop-color="#130D05"/>
<stop offset="0.7638" stop-color="#050301"/>
<stop offset="0.8571"/>
</radialGradient>
<radialGradient id="paint14_radial_119_23415" cx="0" cy="0" r="1" gradientUnits="userSpaceOnUse" gradientTransform="translate(96.2717 8.78625) rotate(-158.01) scale(0.257371 0.0830297)">
<stop offset="0.002273" stop-color="#FBB040"/>
<stop offset="0.0545528" stop-color="#E09D39"/>
<stop offset="0.1793" stop-color="#A6742A"/>
<stop offset="0.3039" stop-color="#73511D"/>
<stop offset="0.4256" stop-color="#4A3413"/>
<stop offset="0.5436" stop-color="#2A1D0B"/>
<stop offset="0.657" stop-color="#130D05"/>
<stop offset="0.7638" stop-color="#050301"/>
<stop offset="0.8571"/>
</radialGradient>
<radialGradient id="paint15_radial_119_23415" cx="0" cy="0" r="1" gradientUnits="userSpaceOnUse" gradientTransform="translate(96.2716 8.78616) rotate(114.729) scale(0.256496 0.0833076)">
<stop offset="0.002273" stop-color="#FBB040"/>
<stop offset="0.0545528" stop-color="#E09D39"/>
<stop offset="0.1793" stop-color="#A6742A"/>
<stop offset="0.3039" stop-color="#73511D"/>
<stop offset="0.4256" stop-color="#4A3413"/>
<stop offset="0.5436" stop-color="#2A1D0B"/>
<stop offset="0.657" stop-color="#130D05"/>
<stop offset="0.7638" stop-color="#050301"/>
<stop offset="0.8571"/>
</radialGradient>
<radialGradient id="paint16_radial_119_23415" cx="0" cy="0" r="1" gradientUnits="userSpaceOnUse" gradientTransform="translate(96.2717 8.78614) rotate(21.9707) scale(0.928235 0.92508)">
<stop offset="0.002273" stop-color="#FBB040"/>
<stop offset="0.0545528" stop-color="#E09D39"/>
<stop offset="0.1793" stop-color="#A6742A"/>
<stop offset="0.3039" stop-color="#73511D"/>
<stop offset="0.4256" stop-color="#4A3413"/>
<stop offset="0.5436" stop-color="#2A1D0B"/>
<stop offset="0.657" stop-color="#130D05"/>
<stop offset="0.7638" stop-color="#050301"/>
<stop offset="0.8571"/>
</radialGradient>
<linearGradient id="paint17_linear_119_23415" x1="80.7992" y1="15.6869" x2="81.7619" y2="21.859" gradientUnits="userSpaceOnUse">
<stop stop-color="#FFAA00"/>
<stop offset="1" stop-color="#FFDB00"/>
</linearGradient>
<linearGradient id="paint18_linear_119_23415" x1="80.5349" y1="12.3015" x2="82.8848" y2="17.1945" gradientUnits="userSpaceOnUse">
<stop stop-color="#FFC037"/>
<stop offset="1" stop-color="#FFE596"/>
</linearGradient>
<linearGradient id="paint19_linear_119_23415" x1="64.0722" y1="84.9771" x2="66.9006" y2="88.4531" gradientUnits="userSpaceOnUse">
<stop stop-color="#FFAA00"/>
<stop offset="1" stop-color="#FFDB00"/>
</linearGradient>
<linearGradient id="paint20_linear_119_23415" x1="62.6839" y1="82.9751" x2="65.9093" y2="85.1569" gradientUnits="userSpaceOnUse">
<stop stop-color="#FFC037"/>
<stop offset="1" stop-color="#FFE596"/>
</linearGradient>
<linearGradient id="paint21_linear_119_23415" x1="31.3559" y1="21.5718" x2="36.1397" y2="25.5889" gradientUnits="userSpaceOnUse">
<stop stop-color="#FFAA00"/>
<stop offset="1" stop-color="#FFDB00"/>
</linearGradient>
<linearGradient id="paint22_linear_119_23415" x1="28.9306" y1="19.1947" x2="33.9184" y2="21.3359" gradientUnits="userSpaceOnUse">
<stop stop-color="#FFC037"/>
<stop offset="1" stop-color="#FFE596"/>
</linearGradient>
<linearGradient id="paint23_linear_119_23415" x1="44.942" y1="77.0898" x2="48.2511" y2="78.6905" gradientUnits="userSpaceOnUse">
<stop stop-color="#FFAA00"/>
<stop offset="1" stop-color="#FFDB00"/>
</linearGradient>
<linearGradient id="paint24_linear_119_23415" x1="43.2152" y1="76.0838" x2="46.3697" y2="76.585" gradientUnits="userSpaceOnUse">
<stop stop-color="#FFC037"/>
<stop offset="1" stop-color="#FFE596"/>
</linearGradient>
</defs>
</svg>
