<svg width="46" height="46" viewBox="0 0 46 46" fill="none" xmlns="http://www.w3.org/2000/svg">
<path d="M24.2588 4.61447C24.0221 4.1361 23.5342 3.83331 23 3.83331C22.4658 3.83331 21.9779 4.1361 21.7412 4.61447L16.283 15.6478L4.07625 17.428C3.54735 17.5052 3.10818 17.8756 2.94341 18.3835C2.77865 18.8913 2.91688 19.4486 3.29997 19.8209L12.1307 28.403L10.0467 40.5269C9.95624 41.053 10.1727 41.5847 10.6049 41.8986C11.0372 42.2125 11.6104 42.254 12.0835 42.0057L23 36.2775L33.9165 42.0057C34.3896 42.254 34.9628 42.2125 35.3951 41.8986C35.8273 41.5847 36.0438 41.053 35.9533 40.5269L33.8693 28.403L42.7 19.8209C43.0831 19.4486 43.2213 18.8913 43.0566 18.3835C42.8918 17.8756 42.4526 17.5052 41.9237 17.428L29.717 15.6478L24.2588 4.61447Z" fill="#FEC318"/>
</svg>
