<svg width="28" height="28" viewBox="0 0 28 28" fill="none" xmlns="http://www.w3.org/2000/svg">
<path fill-rule="evenodd" clip-rule="evenodd" d="M4.72665 24.5L4.72667 13.3102L3.82716 14.0687C3.45672 14.3811 2.88947 14.3495 2.56019 13.998C2.2309 13.6466 2.26427 13.1085 2.63472 12.7961L13.4039 3.71504C13.744 3.42832 14.2564 3.42832 14.5964 3.71504L25.3656 12.7961C25.7361 13.1085 25.7694 13.6466 25.4401 13.998C25.1108 14.3495 24.5436 14.3811 24.1732 14.0687L23.2737 13.3102L23.2736 24.5H4.72665ZM17.2908 22.7973H21.4788V11.7967L14.0002 5.49042L6.52154 11.7967V22.7973H10.7096V16.8378C10.7096 16.3676 11.1114 15.9865 11.607 15.9865H16.3933C16.889 15.9865 17.2908 16.3676 17.2908 16.8378V22.7973ZM12.5044 17.6892V22.7973H15.4959V17.6892H12.5044Z" fill="white"/>
</svg>
