<svg width="28" height="28" viewBox="0 0 28 28" fill="none" xmlns="http://www.w3.org/2000/svg">
<path fill-rule="evenodd" clip-rule="evenodd" d="M2.33301 13.9999C2.33301 7.5566 7.55635 2.33325 13.9997 2.33325C20.443 2.33325 25.6663 7.5566 25.6663 13.9999C25.6663 20.4432 20.443 25.6666 13.9997 25.6666C7.55635 25.6666 2.33301 20.4432 2.33301 13.9999ZM20.7019 21.0611L20.7818 21.1173L20.8519 21.0492C22.689 19.2631 23.8305 16.7647 23.8305 13.9999C23.8305 8.57053 19.4291 4.16913 13.9997 4.16913C8.57028 4.16913 4.16889 8.57053 4.16889 13.9999C4.16889 16.7647 5.31032 19.2631 7.1475 21.0492L7.21752 21.1173L7.29742 21.0611C9.19381 19.7281 11.5062 18.9449 13.9997 18.9449C16.4931 18.9449 18.8055 19.7281 20.7019 21.0611ZM19.0991 22.4064L19.2647 22.3057L19.0991 22.205C17.6124 21.301 15.8675 20.7808 13.9997 20.7808C12.1318 20.7808 10.3869 21.301 8.90024 22.205L8.73462 22.3057L8.90025 22.4064C10.3871 23.3102 12.1327 23.8307 13.9997 23.8307C15.8667 23.8307 17.6123 23.3102 19.0991 22.4064Z" fill="white"/>
<path fill-rule="evenodd" clip-rule="evenodd" d="M9.33312 12.0868C9.33312 9.51507 11.4221 7.42967 13.9998 7.42967C16.5775 7.42967 18.6665 9.51507 18.6665 12.0868V12.8428C18.6665 15.4145 16.5775 17.4999 13.9998 17.4999C11.4221 17.4999 9.33312 15.4145 9.33312 12.8428V12.0868ZM13.9998 9.18306C12.3935 9.18306 11.0907 10.4828 11.0907 12.0868V12.8428C11.0907 14.4469 12.3935 15.7466 13.9998 15.7466C15.6061 15.7466 16.9089 14.4469 16.9089 12.8428V12.0868C16.9089 10.4828 15.6061 9.18306 13.9998 9.18306Z" fill="white"/>
</svg>
