<svg width="28" height="28" viewBox="0 0 28 28" fill="none" xmlns="http://www.w3.org/2000/svg">
<path fill-rule="evenodd" clip-rule="evenodd" d="M9.3335 2.33337C7.4005 2.33337 5.8335 3.90038 5.8335 5.83337V22.1667C5.8335 24.0997 7.4005 25.6667 9.3335 25.6667H18.6668C20.5998 25.6667 22.1668 24.0997 22.1668 22.1667V5.83337C22.1668 3.90038 20.5998 2.33337 18.6668 2.33337H9.3335ZM18.6668 4.08337H9.3335C8.367 4.08337 7.5835 4.86688 7.5835 5.83337V6.12504H20.4168V5.83337C20.4168 4.86688 19.6333 4.08337 18.6668 4.08337ZM7.5835 20.125V7.87504H20.4168V20.125H7.5835ZM7.5835 21.875V22.1667C7.5835 23.1332 8.367 23.9167 9.3335 23.9167H18.6668C19.6333 23.9167 20.4168 23.1332 20.4168 22.1667V21.875H7.5835Z" fill="white"/>
</svg>
