<svg width="42" height="47" viewBox="0 0 42 47" fill="none" xmlns="http://www.w3.org/2000/svg">
<path d="M0.959961 0.590088H33.2781V40.0901H0.959961V0.590088Z" fill="#525B73"/>
<g style="mix-blend-mode:multiply">
<path d="M6.09473 12.9788H34.0679V40.0901H6.09473V12.9788Z" fill="#EEEEEE"/>
</g>
<path d="M10.7271 7.77185H41.2498V37.8457L33.6191 46.3741H10.7271V7.77185Z" fill="#76809B"/>
<path fill-rule="evenodd" clip-rule="evenodd" d="M17.46 14.8998H35.3703V16.3004H17.46V14.8998Z" fill="#BDC4D8"/>
<path fill-rule="evenodd" clip-rule="evenodd" d="M17.46 20.969H35.3703V22.3696H17.46V20.969Z" fill="#BDC4D8"/>
<path fill-rule="evenodd" clip-rule="evenodd" d="M17.46 27.0382H35.3703V28.4388H17.46V27.0382Z" fill="#BDC4D8"/>
<path fill-rule="evenodd" clip-rule="evenodd" d="M17.46 33.1075H27.7838V34.5081H17.46V33.1075Z" fill="#BDC4D8"/>
<g style="mix-blend-mode:multiply">
<path d="M30.4771 39.6413L33.6191 37.8458V46.3742L30.4771 39.6413Z" fill="#EEEEEE"/>
</g>
<path d="M33.6191 37.8458H41.2498L33.6191 46.3742L33.6191 37.8458Z" fill="#BDC4D8"/>
</svg>
