<svg width="28" height="28" viewBox="0 0 28 28" fill="none" xmlns="http://www.w3.org/2000/svg">
<path d="M10.3702 11.6031C9.79747 11.6031 9.33317 12.0642 9.33317 12.633C9.33317 13.2019 9.79747 13.663 10.3702 13.663C10.9429 13.663 11.4072 13.2019 11.4072 12.633C11.4072 12.0642 10.9429 11.6031 10.3702 11.6031Z" fill="white"/>
<path d="M16.8003 12.633C16.8003 12.0642 17.2646 11.6031 17.8373 11.6031C18.4101 11.6031 18.8744 12.0642 18.8744 12.633C18.8744 13.2019 18.4101 13.663 17.8373 13.663C17.2646 13.663 16.8003 13.2019 16.8003 12.633Z" fill="white"/>
<path fill-rule="evenodd" clip-rule="evenodd" d="M8.1665 16.3333C8.1665 15.6889 8.68884 15.1666 9.33317 15.1666H18.6665C19.3108 15.1666 19.8332 15.6889 19.8332 16.3333V18.6666C19.8332 19.3109 19.3108 19.8333 18.6665 19.8333H9.33317C8.68884 19.8333 8.1665 19.3109 8.1665 18.6666V16.3333ZM9.68317 18.3166V16.6833H10.9083V18.3166H9.68317ZM12.425 18.3166V16.6833H15.575V18.3166H12.425ZM17.0916 18.3166H18.3165V16.6833H17.0916V18.3166Z" fill="white"/>
<path fill-rule="evenodd" clip-rule="evenodd" d="M8.1665 2.33325C6.87784 2.33325 5.83317 3.37081 5.83317 4.65071C5.83317 5.93061 6.87784 6.96817 8.1665 6.96817C8.23955 6.96817 8.3118 6.96484 8.38313 6.95831L8.85054 8.12685H7.4665C5.92011 8.12685 4.6665 9.37193 4.6665 10.9078V19.7656C4.6665 21.3015 5.92011 22.5466 7.46651 22.5466H8.81465V24.7378C8.81465 25.5151 9.71992 25.9472 10.331 25.4617L13.9998 22.5466H20.5332C22.0796 22.5466 23.3332 21.3015 23.3332 19.7656V10.9078C23.3332 9.37193 22.0796 8.12685 20.5332 8.12685H19.1491L19.6165 6.95831C19.6879 6.96484 19.7601 6.96817 19.8332 6.96817C21.1218 6.96817 22.1665 5.93061 22.1665 4.65071C22.1665 3.37081 21.1218 2.33325 19.8332 2.33325C18.5445 2.33325 17.4998 3.37081 17.4998 4.65071C17.4998 5.31486 17.7811 5.91376 18.2319 6.33629L17.5156 8.12685H10.484L9.76782 6.33629C10.2185 5.91376 10.4998 5.31486 10.4998 4.65071C10.4998 3.37081 9.45517 2.33325 8.1665 2.33325ZM8.1665 3.84992C7.70569 3.84992 7.34984 4.21819 7.34984 4.65071C7.34984 5.08323 7.70569 5.4515 8.1665 5.4515C8.62731 5.4515 8.98317 5.08323 8.98317 4.65071C8.98317 4.21819 8.62731 3.84992 8.1665 3.84992ZM10.2147 23.7735V21.1561H7.46651C6.69331 21.1561 6.0665 20.5336 6.0665 19.7656V10.9078C6.0665 10.1399 6.69331 9.51733 7.4665 9.51733H20.5332C21.3064 9.51733 21.9332 10.1399 21.9332 10.9078V19.7656C21.9332 20.5336 21.3064 21.1561 20.5332 21.1561H13.5087L10.2147 23.7735ZM20.6498 4.65071C20.6498 4.21819 20.294 3.84992 19.8332 3.84992C19.3724 3.84992 19.0165 4.21819 19.0165 4.65071C19.0165 5.08323 19.3724 5.4515 19.8332 5.4515C20.294 5.4515 20.6498 5.08323 20.6498 4.65071Z" fill="white"/>
</svg>
