<svg width="28" height="28" viewBox="0 0 28 28" fill="none" xmlns="http://www.w3.org/2000/svg">
<path d="M6.54305 21.3456C6.54305 21.407 6.59279 21.4568 6.65416 21.4568H11.9011C12.4193 21.4568 12.8393 21.8768 12.8393 22.395C12.8393 22.9132 12.4193 23.3333 11.9011 23.3333H6.65416C5.55641 23.3333 4.6665 22.4434 4.6665 21.3456V6.65428C4.6665 5.55653 5.55641 4.66663 6.65416 4.66663H11.9011C12.4193 4.66663 12.8393 5.0867 12.8393 5.6049C12.8393 6.12309 12.4193 6.54317 11.9011 6.54317H6.65416C6.59279 6.54317 6.54305 6.59292 6.54305 6.65428V21.3456Z" fill="white"/>
<path d="M23.3332 14.0028C23.3328 14.1292 23.3075 14.2494 23.262 14.3591C23.2173 14.4671 23.1515 14.5686 23.0645 14.6573L23.0573 14.6645L18.8608 18.8609C18.4944 19.2274 17.9003 19.2274 17.5339 18.8609C17.1675 18.4945 17.1675 17.9005 17.5339 17.534L19.94 15.1279C19.9718 15.0961 19.9813 15.0483 19.9641 15.0068C19.9469 14.9653 19.9064 14.9382 19.8615 14.9382H10.8517C10.3335 14.9382 9.91342 14.5182 9.91342 14C9.91342 13.4818 10.3335 13.0617 10.8517 13.0617H19.8615C19.9064 13.0617 19.9469 13.0346 19.9641 12.9931C19.9813 12.9516 19.9718 12.9038 19.94 12.872L17.5339 10.4659C17.1675 10.0995 17.1675 9.50539 17.5339 9.13897C17.9003 8.77255 18.4944 8.77255 18.8608 9.13897L23.0584 13.3365C23.2409 13.519 23.3325 13.7578 23.3332 13.9971L23.3332 14.0001L23.3332 14.0028Z" fill="white"/>
</svg>
