<svg width="28" height="28" viewBox="0 0 28 28" fill="none" xmlns="http://www.w3.org/2000/svg">
<path fill-rule="evenodd" clip-rule="evenodd" d="M5.45351 3.5C3.40812 3.5 1.75 5.24608 1.75 7.39999V9.2C1.75 9.69705 2.13264 10.1 2.60465 10.1H7.4477V20.8C7.4477 21.8348 7.85258 22.7709 8.50104 23.4419C8.96719 23.9233 9.56364 24.2687 10.2252 24.4183C10.3337 24.4708 10.4543 24.5 10.5814 24.5H21.9769L21.9964 24.4998H23.1162C23.2427 24.4998 23.3627 24.4708 23.4707 24.4189C25.0593 24.0632 26.2499 22.5784 26.2499 20.7998V19.1998C26.2499 18.7027 25.8673 18.2998 25.3953 18.2998H22.8315V7.19999C22.8315 5.4213 21.6407 3.93663 20.0524 3.58085C19.9443 3.52893 19.8243 3.5 19.6978 3.5H6.02326C5.9601 3.5 5.89854 3.50721 5.83929 3.5209C5.71248 3.50708 5.58378 3.5 5.45351 3.5ZM12.1699 22.6807C12.1385 22.6854 12.1078 22.6919 12.0777 22.7H10.7936C10.7645 22.6922 10.7347 22.6859 10.7044 22.6812C10.3158 22.6218 9.96504 22.4327 9.69861 22.1576C9.36287 21.8099 9.157 21.3306 9.157 20.8V6.79999C9.157 6.25993 9.03372 5.75008 8.81518 5.29999H19.4856C19.5154 5.308 19.5459 5.3144 19.577 5.31907C20.4502 5.45037 21.1222 6.24305 21.1222 7.19999V18.2998H14.5698C14.0978 18.2998 13.7151 18.7027 13.7151 19.1998V20.7998C13.7151 21.7568 13.0432 22.5494 12.1699 22.6807ZM7.4477 7.39033C7.44276 6.23497 6.55182 5.29999 5.45351 5.29999C4.35214 5.29999 3.4593 6.24019 3.4593 7.39999V8.3H7.4477V7.39033ZM22.904 22.6998C22.9338 22.6918 22.9643 22.6854 22.9954 22.6807C23.8687 22.5494 24.5406 21.7568 24.5406 20.7998V20.0998H15.4244V20.7998C15.4244 21.4946 15.2428 22.1445 14.9267 22.6998H22.904ZM12.8603 8.30003C12.3883 8.30003 12.0056 8.70297 12.0056 9.20003C12.0056 9.69708 12.3883 10.1 12.8603 10.1H17.4184C17.8904 10.1 18.2731 9.69708 18.2731 9.20003C18.2731 8.70297 17.8904 8.30003 17.4184 8.30003H12.8603ZM12.8603 12.5C12.3883 12.5 12.0056 12.9029 12.0056 13.4C12.0056 13.897 12.3883 14.3 12.8603 14.3H17.4184C17.8904 14.3 18.2731 13.897 18.2731 13.4C18.2731 12.9029 17.8904 12.5 17.4184 12.5H12.8603Z" fill="white"/>
</svg>
