<svg width="32" height="32" viewBox="0 0 32 32" fill="none" xmlns="http://www.w3.org/2000/svg">
<path d="M8.96329 9.77709L11.9408 12.8267C12.3571 13.2531 12.3571 13.9425 11.9408 14.3689C11.5236 14.7963 10.8536 14.805 10.44 14.3812L5.63925 9.46359C5.54207 9.35242 5.46703 9.23102 5.41338 9.09909C5.30687 8.83721 5.30687 8.53019 5.41338 8.26831C5.46703 8.13638 5.54207 8.01498 5.63925 7.90381L10.44 2.98617C10.8554 2.5606 11.5254 2.5606 11.9408 2.98617C12.3571 3.41266 12.3569 4.10215 11.9406 4.52864L8.96428 7.59031H25.6012C26.1855 7.59031 26.6668 8.08109 26.6668 8.6837C26.6668 9.28631 26.1855 9.77709 25.6012 9.77709H8.96329Z" fill="#BDC4D8"/>
<path fill-rule="evenodd" clip-rule="evenodd" d="M14.9073 19.2716C14.9073 18.6928 15.3699 18.2235 15.9406 18.2235L25.3335 18.2235C25.9042 18.2235 26.3668 18.6928 26.3668 19.2716C26.3668 19.8504 25.9042 20.3197 25.3335 20.3197H15.9406C15.3699 20.3197 14.9073 19.8504 14.9073 19.2716Z" fill="#BDC4D8"/>
<path fill-rule="evenodd" clip-rule="evenodd" d="M19.6335 26.9529C19.6335 26.3741 20.0961 25.9048 20.6668 25.9048L25.3335 25.9048C25.9042 25.9048 26.3668 26.3741 26.3668 26.9529C26.3668 27.5317 25.9042 28.001 25.3335 28.001H20.6668C20.0961 28.001 19.6335 27.5317 19.6335 26.9529Z" fill="#BDC4D8"/>
</svg>
