<svg width="28" height="28" viewBox="0 0 28 28" fill="none" xmlns="http://www.w3.org/2000/svg">
<path fill-rule="evenodd" clip-rule="evenodd" d="M8.06716 8.26546C8.06716 5.63715 10.2552 3.44449 13.0339 3.44449C15.8127 3.44449 18.0007 5.63715 18.0007 8.26546V9.24258C18.0007 11.8709 15.8127 14.0636 13.0339 14.0636C10.2552 14.0636 8.06716 11.8709 8.06716 9.24258V8.26546ZM13.0339 5.2695C11.3986 5.2695 10.0082 6.5766 10.0082 8.26546V9.24258C10.0082 10.9314 11.3986 12.2385 13.0339 12.2385C14.6693 12.2385 16.0597 10.9314 16.0597 9.24258V8.26546C16.0597 6.5766 14.6693 5.2695 13.0339 5.2695ZM3.5 21.4564C3.5 18.241 6.21337 15.5973 9.60857 15.5973H16.4593C19.8545 15.5973 22.5679 18.241 22.5679 21.4564V23.1053C22.5679 24.4994 21.3881 25.6667 19.8847 25.6667H6.18321C4.67978 25.6667 3.5 24.4994 3.5 23.1053V21.4564ZM9.60857 17.4223C7.32844 17.4223 5.44104 19.2079 5.44104 21.4564V23.1053C5.44104 23.5325 5.79485 23.8417 6.18321 23.8417H19.8847C20.273 23.8417 20.6268 23.5325 20.6268 23.1053V21.4564C20.6268 19.2079 18.7394 17.4223 16.4593 17.4223H9.60857Z" fill="white"/>
<path d="M22.4805 2.58386C22.8125 2.91276 22.8153 3.43069 22.5022 3.74082L20.6238 5.60164C20.3107 5.91177 19.7878 5.909 19.4558 5.58011C19.1238 5.25121 19.121 4.73328 19.4341 4.42314L21.3125 2.56233C21.6256 2.2522 22.1485 2.25497 22.4805 2.58386Z" fill="white"/>
<path d="M24.5 8.16672C24.5 8.63185 24.1323 9.00004 23.6895 9.00004H21.033C20.5902 9.00004 20.2225 8.63184 20.2225 8.16672C20.2225 7.70159 20.5902 7.3334 21.033 7.3334H23.6895C24.1323 7.3334 24.5 7.70159 24.5 8.16672Z" fill="white"/>
</svg>
