<svg width="63" height="62" viewBox="0 0 63 62" fill="none" xmlns="http://www.w3.org/2000/svg">
<g style="mix-blend-mode:screen">
<path d="M26.36 37.9703C23.0775 35.583 22.6299 30.5099 25.4648 26.6305C28.2997 22.7511 33.2234 21.5574 36.5058 24.094C39.7883 26.4813 40.2359 31.5544 37.4011 35.4338C34.7154 39.3132 29.7917 40.3577 26.36 37.9703Z" fill="url(#paint0_radial_685_184)"/>
<g style="mix-blend-mode:screen">
<path d="M47.0989 61.843C46.502 62.1415 38.5943 47.3698 29.1944 28.7188C19.9438 10.217 21.4359 11.4107 17.109 3.20421C12.3345 -6.0467 21.8835 9.17254 31.1341 27.8236C40.5339 46.3254 47.6957 61.5446 47.0989 61.843Z" fill="url(#paint1_radial_685_184)"/>
</g>
<g style="mix-blend-mode:screen">
<path d="M0.399376 45.8779C0.10097 45.281 15.1705 37.6714 33.9701 28.8681C52.7697 20.0648 51.4269 21.5569 59.7823 17.3791C69.1821 12.7536 53.6649 22.0045 34.8653 30.8078C16.0657 39.7603 0.697782 46.4747 0.399376 45.8779Z" fill="url(#paint2_radial_685_184)"/>
</g>
<g style="mix-blend-mode:screen">
<path d="M15.3203 26.3316C15.4695 26.0331 22.6313 27.9728 31.5835 30.5094C40.5357 33.0459 47.6975 35.4333 47.5482 35.7317C47.5482 36.0301 40.2373 34.0904 31.2851 31.5538C22.4821 29.0173 15.3203 26.63 15.3203 26.3316Z" fill="url(#paint3_radial_685_184)"/>
</g>
<g style="mix-blend-mode:screen">
<path d="M26.8082 47.2208C26.5098 47.0716 28.4494 39.9096 30.9859 30.9571C33.5223 22.0046 35.9096 14.9918 36.0588 14.9918C36.3572 14.9918 34.4175 22.303 31.8811 31.2555C29.4938 40.0588 27.1066 47.2208 26.8082 47.2208Z" fill="url(#paint4_radial_685_184)"/>
</g>
<g style="mix-blend-mode:screen">
<path d="M22.9288 35.2847C22.1828 33.7926 25.316 30.6593 30.0905 28.2719C34.865 25.8846 39.3411 25.2878 40.0871 26.7798C40.8331 28.2719 37.6999 31.4053 32.9254 33.7926C28.1509 36.18 23.6748 36.7768 22.9288 35.2847Z" fill="url(#paint5_radial_685_184)"/>
</g>
<g style="mix-blend-mode:screen">
<path d="M26.5106 22.8994C28.0026 22.0041 31.4343 24.9883 34.12 29.4645C36.8056 33.9408 37.8501 38.2678 36.5072 39.1631C35.0152 40.0583 31.5835 37.0741 28.8979 32.5979C26.063 28.1217 25.0186 23.7946 26.5106 22.8994Z" fill="url(#paint6_radial_685_184)"/>
</g>
<g style="mix-blend-mode:screen">
<path d="M27.4057 29.9123C27.5549 29.1662 29.6437 29.1662 31.8817 29.7631C34.1198 30.3599 35.761 31.5535 35.6118 32.2996C35.4626 33.0456 33.3738 33.0456 31.1357 32.4488C28.8977 31.7028 27.2565 30.6583 27.4057 29.9123Z" fill="url(#paint7_radial_685_184)"/>
</g>
<g style="mix-blend-mode:screen">
<path d="M30.09 35.1346C29.344 34.8361 29.344 32.8964 30.2392 30.6583C30.9852 28.4202 32.1789 26.7789 32.9249 27.0773C33.6709 27.3757 33.6709 29.3154 32.7757 31.5536C32.0297 33.7917 30.836 35.2838 30.09 35.1346Z" fill="url(#paint8_radial_685_184)"/>
</g>
<g style="mix-blend-mode:screen">
<path d="M45.8622 35.7845C43.4749 43.9909 34.9704 48.6164 26.7642 46.2291C18.558 43.8417 13.9327 35.3369 16.32 27.1304C18.7072 18.924 27.2118 14.2985 35.4179 16.6858C43.6241 19.0732 48.2494 27.578 45.8622 35.7845Z" fill="url(#paint9_radial_685_184)"/>
</g>
</g>
<defs>
<radialGradient id="paint0_radial_685_184" cx="0" cy="0" r="1" gradientUnits="userSpaceOnUse" gradientTransform="translate(31.5105 31.0792) rotate(126.201) scale(8.60892 7.38398)">
<stop offset="0.002273" stop-color="#FBB040"/>
<stop offset="0.0545528" stop-color="#E09D39"/>
<stop offset="0.1793" stop-color="#A6742A"/>
<stop offset="0.3039" stop-color="#73511D"/>
<stop offset="0.4256" stop-color="#4A3413"/>
<stop offset="0.5436" stop-color="#2A1D0B"/>
<stop offset="0.657" stop-color="#130D05"/>
<stop offset="0.7638" stop-color="#050301"/>
<stop offset="0.8571"/>
</radialGradient>
<radialGradient id="paint1_radial_685_184" cx="0" cy="0" r="1" gradientUnits="userSpaceOnUse" gradientTransform="translate(31.6409 31.0087) rotate(63.3092) scale(36.0145 1.06744)">
<stop offset="0.002273" stop-color="#FBB040"/>
<stop offset="0.0545528" stop-color="#E09D39"/>
<stop offset="0.1793" stop-color="#A6742A"/>
<stop offset="0.3039" stop-color="#73511D"/>
<stop offset="0.4256" stop-color="#4A3413"/>
<stop offset="0.5436" stop-color="#2A1D0B"/>
<stop offset="0.657" stop-color="#130D05"/>
<stop offset="0.7638" stop-color="#050301"/>
<stop offset="0.8571"/>
</radialGradient>
<radialGradient id="paint2_radial_685_184" cx="0" cy="0" r="1" gradientUnits="userSpaceOnUse" gradientTransform="translate(31.5795 31.2158) rotate(154.749) scale(36.0305 1.06667)">
<stop offset="0.002273" stop-color="#FBB040"/>
<stop offset="0.0545528" stop-color="#E09D39"/>
<stop offset="0.1793" stop-color="#A6742A"/>
<stop offset="0.3039" stop-color="#73511D"/>
<stop offset="0.4256" stop-color="#4A3413"/>
<stop offset="0.5436" stop-color="#2A1D0B"/>
<stop offset="0.657" stop-color="#130D05"/>
<stop offset="0.7638" stop-color="#050301"/>
<stop offset="0.8571"/>
</radialGradient>
<radialGradient id="paint3_radial_685_184" cx="0" cy="0" r="1" gradientUnits="userSpaceOnUse" gradientTransform="translate(31.5102 31.0809) rotate(-163.746) scale(16.7725 0.496214)">
<stop offset="0.002273" stop-color="#FBB040"/>
<stop offset="0.0545528" stop-color="#E09D39"/>
<stop offset="0.1793" stop-color="#A6742A"/>
<stop offset="0.3039" stop-color="#73511D"/>
<stop offset="0.4256" stop-color="#4A3413"/>
<stop offset="0.5436" stop-color="#2A1D0B"/>
<stop offset="0.657" stop-color="#130D05"/>
<stop offset="0.7638" stop-color="#050301"/>
<stop offset="0.8571"/>
</radialGradient>
<radialGradient id="paint4_radial_685_184" cx="0" cy="0" r="1" gradientUnits="userSpaceOnUse" gradientTransform="translate(31.5095 31.0806) rotate(106.128) scale(16.7695 0.498904)">
<stop offset="0.002273" stop-color="#FBB040"/>
<stop offset="0.0545528" stop-color="#E09D39"/>
<stop offset="0.1793" stop-color="#A6742A"/>
<stop offset="0.3039" stop-color="#73511D"/>
<stop offset="0.4256" stop-color="#4A3413"/>
<stop offset="0.5436" stop-color="#2A1D0B"/>
<stop offset="0.657" stop-color="#130D05"/>
<stop offset="0.7638" stop-color="#050301"/>
<stop offset="0.8571"/>
</radialGradient>
<radialGradient id="paint5_radial_685_184" cx="0" cy="0" r="1" gradientUnits="userSpaceOnUse" gradientTransform="translate(31.5103 31.0814) rotate(153.786) scale(9.54813 3.09177)">
<stop offset="0.002273" stop-color="#FBB040"/>
<stop offset="0.0545528" stop-color="#E09D39"/>
<stop offset="0.1793" stop-color="#A6742A"/>
<stop offset="0.3039" stop-color="#73511D"/>
<stop offset="0.4256" stop-color="#4A3413"/>
<stop offset="0.5436" stop-color="#2A1D0B"/>
<stop offset="0.657" stop-color="#130D05"/>
<stop offset="0.7638" stop-color="#050301"/>
<stop offset="0.8571"/>
</radialGradient>
<radialGradient id="paint6_radial_685_184" cx="0" cy="0" r="1" gradientUnits="userSpaceOnUse" gradientTransform="translate(31.5113 31.0806) rotate(-121.386) scale(9.5494 3.09107)">
<stop offset="0.002273" stop-color="#FBB040"/>
<stop offset="0.0545528" stop-color="#E09D39"/>
<stop offset="0.1793" stop-color="#A6742A"/>
<stop offset="0.3039" stop-color="#73511D"/>
<stop offset="0.4256" stop-color="#4A3413"/>
<stop offset="0.5436" stop-color="#2A1D0B"/>
<stop offset="0.657" stop-color="#130D05"/>
<stop offset="0.7638" stop-color="#050301"/>
<stop offset="0.8571"/>
</radialGradient>
<radialGradient id="paint7_radial_685_184" cx="0" cy="0" r="1" gradientUnits="userSpaceOnUse" gradientTransform="translate(31.5116 31.0809) rotate(-163.747) scale(4.27452 1.37816)">
<stop offset="0.002273" stop-color="#FBB040"/>
<stop offset="0.0545528" stop-color="#E09D39"/>
<stop offset="0.1793" stop-color="#A6742A"/>
<stop offset="0.3039" stop-color="#73511D"/>
<stop offset="0.4256" stop-color="#4A3413"/>
<stop offset="0.5436" stop-color="#2A1D0B"/>
<stop offset="0.657" stop-color="#130D05"/>
<stop offset="0.7638" stop-color="#050301"/>
<stop offset="0.8571"/>
</radialGradient>
<radialGradient id="paint8_radial_685_184" cx="0" cy="0" r="1" gradientUnits="userSpaceOnUse" gradientTransform="translate(31.5101 31.0811) rotate(109.023) scale(4.25702 1.3838)">
<stop offset="0.002273" stop-color="#FBB040"/>
<stop offset="0.0545528" stop-color="#E09D39"/>
<stop offset="0.1793" stop-color="#A6742A"/>
<stop offset="0.3039" stop-color="#73511D"/>
<stop offset="0.4256" stop-color="#4A3413"/>
<stop offset="0.5436" stop-color="#2A1D0B"/>
<stop offset="0.657" stop-color="#130D05"/>
<stop offset="0.7638" stop-color="#050301"/>
<stop offset="0.8571"/>
</radialGradient>
<radialGradient id="paint9_radial_685_184" cx="0" cy="0" r="1" gradientUnits="userSpaceOnUse" gradientTransform="translate(31.1095 31.4799) rotate(16.2364) scale(15.4159 15.3557)">
<stop offset="0.002273" stop-color="#FBB040"/>
<stop offset="0.0545528" stop-color="#E09D39"/>
<stop offset="0.1793" stop-color="#A6742A"/>
<stop offset="0.3039" stop-color="#73511D"/>
<stop offset="0.4256" stop-color="#4A3413"/>
<stop offset="0.5436" stop-color="#2A1D0B"/>
<stop offset="0.657" stop-color="#130D05"/>
<stop offset="0.7638" stop-color="#050301"/>
<stop offset="0.8571"/>
</radialGradient>
</defs>
</svg>
