<svg width="46" height="46" viewBox="0 0 46 46" fill="none" xmlns="http://www.w3.org/2000/svg">
<path fill-rule="evenodd" clip-rule="evenodd" d="M23.0002 42.1668C33.5856 42.1668 42.1668 33.5856 42.1668 23.0002C42.1668 12.4147 33.5856 3.8335 23.0002 3.8335C12.4147 3.8335 3.8335 12.4147 3.8335 23.0002C3.8335 33.5856 12.4147 42.1668 23.0002 42.1668ZM23.0002 12.5456C24.0521 12.5456 24.9049 13.3984 24.9049 14.4503V21.0955H31.55C32.6019 21.0955 33.4547 21.9482 33.4547 23.0002C33.4547 24.0521 32.6019 24.9049 31.55 24.9049H24.9049V31.55C24.9049 32.6019 24.0521 33.4547 23.0002 33.4547C21.9482 33.4547 21.0954 32.6019 21.0954 31.55V24.9049H14.4503C13.3984 24.9049 12.5456 24.0521 12.5456 23.0002C12.5456 21.9482 13.3984 21.0955 14.4503 21.0955H21.0954V14.4503C21.0954 13.3984 21.9482 12.5456 23.0002 12.5456Z" fill="#F47532"/>
</svg>
