<svg width="18" height="18" viewBox="0 0 18 18" fill="none" xmlns="http://www.w3.org/2000/svg">
<path fill-rule="evenodd" clip-rule="evenodd" d="M0 9C0 4.02944 4.02944 0 9 0C13.9706 0 18 4.02944 18 9C18 13.9706 13.9706 18 9 18C4.02944 18 0 13.9706 0 9ZM6.41676 7.94118C5.83441 7.94118 5.35794 7.46471 5.35794 6.88235C5.35794 6.3 5.82382 5.82353 6.41676 5.82353H6.42735C7.0097 5.82353 7.48617 6.3 7.48617 6.88235C7.48617 7.46471 6.99911 7.94118 6.41676 7.94118ZM8.94735 13.6059C6.45911 13.6059 4.98735 11.6788 4.92382 11.5941C4.65911 11.2447 4.73323 10.7471 5.08264 10.4824C5.43205 10.2176 5.9297 10.2918 6.19441 10.6412L6.19907 10.6464L6.20694 10.6556L6.20696 10.6556C6.3343 10.8049 7.36868 12.0176 8.94735 12.0176C10.5662 12.0176 11.62 10.7386 11.696 10.6464L11.7003 10.6412C11.965 10.2918 12.4626 10.2282 12.8121 10.4929C13.1615 10.7576 13.2356 11.2553 12.9709 11.6047L12.9588 11.6195C12.8013 11.8136 11.347 13.6059 8.94735 13.6059ZM10.4403 6.88235C10.4403 7.46471 10.9168 7.94118 11.4991 7.94118C12.0815 7.94118 12.5685 7.46471 12.5685 6.88235C12.5685 6.3 12.0921 5.82353 11.5097 5.82353H11.4991C10.9062 5.82353 10.4403 6.3 10.4403 6.88235Z" fill="white" fill-opacity="0.6"/>
</svg>
