<svg width="32" height="32" viewBox="0 0 32 32" fill="none" xmlns="http://www.w3.org/2000/svg">
<path fill-rule="evenodd" clip-rule="evenodd" d="M21.2518 20.2727H13.9844L9.04342 23.7864C8.14948 24.4221 6.91073 23.7829 6.91073 22.686V20.2727H6.71714C4.48004 20.2727 2.6665 18.4592 2.6665 16.2221V6.71756C2.6665 4.48044 4.48003 2.6669 6.71714 2.6669H21.2518C23.4889 2.6669 25.3024 4.48044 25.3024 6.71756V16.2221C25.3024 18.4592 23.4889 20.2727 21.2518 20.2727ZM7.69775 11.4697C7.69775 10.7751 8.26078 10.2121 8.9553 10.2121C9.64983 10.2121 10.2129 10.7751 10.2129 11.4697C10.2129 12.1642 9.64983 12.7272 8.9553 12.7272C8.26078 12.7272 7.69775 12.1642 7.69775 11.4697ZM12.7264 11.4697C12.7264 10.7751 13.2894 10.2121 13.9839 10.2121C14.6785 10.2121 15.2415 10.7751 15.2415 11.4697C15.2415 12.1642 14.6785 12.7272 13.9839 12.7272C13.2894 12.7272 12.7264 12.1642 12.7264 11.4697ZM19.0152 10.2121C18.3207 10.2121 17.7577 10.7751 17.7577 11.4697C17.7577 12.1642 18.3207 12.7272 19.0152 12.7272C19.7097 12.7272 20.2727 12.1642 20.2727 11.4697C20.2727 10.7751 19.7097 10.2121 19.0152 10.2121Z" fill="#F47532"/>
<path d="M27.3079 10.7682C27.3079 10.2089 27.7612 9.75556 28.3205 9.75556C28.8798 9.75556 29.3332 10.2089 29.3332 10.7682V20.9787C29.3332 23.0294 27.6708 24.6918 25.6201 24.6918H25.5025V26.4444C25.5025 27.7837 23.9206 28.4948 22.919 27.6057L19.6361 24.6918H14.8184C14.2591 24.6918 13.8057 24.2384 13.8057 23.6791C13.8057 23.1199 14.2591 22.6665 14.8184 22.6665H20.4053L23.4772 25.3931V22.6665H25.6201C26.5522 22.6665 27.3079 21.9108 27.3079 20.9787V10.7682Z" fill="#F47532"/>
</svg>
