<svg width="32" height="32" viewBox="0 0 32 32" fill="none" xmlns="http://www.w3.org/2000/svg">
<path fill-rule="evenodd" clip-rule="evenodd" d="M1.3335 16.0003C1.3335 16.0003 6.66683 5.33359 16.0002 5.33359C25.3335 5.33359 30.6668 16.0003 30.6668 16.0003C30.6668 16.0003 25.3335 26.6669 16.0002 26.6669C6.66683 26.6669 1.3335 16.0003 1.3335 16.0003ZM16.0002 22.6669C19.6821 22.6669 22.6668 19.6822 22.6668 16.0003C22.6668 12.3184 19.6821 9.33359 16.0002 9.33359C12.3183 9.33359 9.3335 12.3184 9.3335 16.0003C9.3335 19.6822 12.3183 22.6669 16.0002 22.6669Z" fill="white" fill-opacity="0.8"/>
<path d="M20.0002 16.0003C20.0002 18.2094 18.2093 20.0003 16.0002 20.0003C13.791 20.0003 12.0002 18.2094 12.0002 16.0003C12.0002 13.7911 13.791 12.0003 16.0002 12.0003C18.2093 12.0003 20.0002 13.7911 20.0002 16.0003Z" fill="white" fill-opacity="0.8"/>
</svg>
