<svg width="32" height="32" viewBox="0 0 32 32" fill="none" xmlns="http://www.w3.org/2000/svg">
<path d="M27.471 9.80216C27.1266 8.9214 26.6468 8.1313 26.0072 7.45778C25.3798 6.78425 24.6417 6.25321 23.8175 5.89054C22.1691 5.15225 20.287 5.15225 18.6386 5.89054C17.8145 6.25321 17.0764 6.78425 16.449 7.45778L15.9938 8.00025L15.5264 7.45778C14.2594 6.08483 12.5618 5.33359 10.7535 5.33359C8.94516 5.33359 7.24757 6.08483 5.96822 7.45778C4.70118 8.81778 4 10.6311 4 12.561C4 14.4909 4.70118 16.3043 5.96822 17.6643L15.3296 27.7153C15.5018 27.8966 15.7355 28.0003 15.9938 28.0003C16.2522 28.0003 16.4736 27.8966 16.6581 27.7153L26.0195 17.6643C26.6468 16.9907 27.1389 16.2006 27.4833 15.3199C27.8278 14.4391 28 13.5065 28 12.561C28 11.6155 27.8155 10.6829 27.471 9.80216Z" fill="white" fill-opacity="0.8"/>
</svg>
