<svg width="24" height="24" viewBox="0 0 24 24" fill="none" xmlns="http://www.w3.org/2000/svg">
<path fill-rule="evenodd" clip-rule="evenodd" d="M3 12C3 7.02944 7.02944 3 12 3C16.9706 3 21 7.02944 21 12C21 16.9706 16.9706 21 12 21C7.02944 21 3 16.9706 3 12ZM9.41676 10.9412C8.83441 10.9412 8.35794 10.4647 8.35794 9.88235C8.35794 9.3 8.82382 8.82353 9.41676 8.82353H9.42735C10.0097 8.82353 10.4862 9.3 10.4862 9.88235C10.4862 10.4647 9.99911 10.9412 9.41676 10.9412ZM11.9473 16.6059C9.45911 16.6059 7.98735 14.6788 7.92382 14.5941C7.65911 14.2447 7.73323 13.7471 8.08264 13.4824C8.43205 13.2176 8.9297 13.2918 9.19441 13.6412L9.19907 13.6464L9.20694 13.6556L9.20696 13.6556C9.3343 13.8049 10.3687 15.0176 11.9473 15.0176C13.5662 15.0176 14.62 13.7386 14.696 13.6464L14.7003 13.6412C14.965 13.2918 15.4626 13.2282 15.8121 13.4929C16.1615 13.7576 16.2356 14.2553 15.9709 14.6047L15.9588 14.6195C15.8013 14.8136 14.347 16.6059 11.9473 16.6059ZM13.4403 9.88235C13.4403 10.4647 13.9168 10.9412 14.4991 10.9412C15.0815 10.9412 15.5685 10.4647 15.5685 9.88235C15.5685 9.3 15.0921 8.82353 14.5097 8.82353H14.4991C13.9062 8.82353 13.4403 9.3 13.4403 9.88235Z" fill="white" fill-opacity="0.6"/>
<mask id="path-2-outside-1_575_7109" maskUnits="userSpaceOnUse" x="12.9375" y="0.9375" width="11" height="11" fill="black">
<rect fill="white" x="12.9375" y="0.9375" width="11" height="11"/>
<path fill-rule="evenodd" clip-rule="evenodd" d="M18 1.9375C18.3107 1.9375 18.5625 2.18934 18.5625 2.5V5.4375H21.5C21.8107 5.4375 22.0625 5.68934 22.0625 6C22.0625 6.31066 21.8107 6.5625 21.5 6.5625H18.5625V9.5C18.5625 9.81066 18.3107 10.0625 18 10.0625C17.6893 10.0625 17.4375 9.81066 17.4375 9.5V6.5625H14.5C14.1893 6.5625 13.9375 6.31066 13.9375 6C13.9375 5.68934 14.1893 5.4375 14.5 5.4375H17.4375V2.5C17.4375 2.18934 17.6893 1.9375 18 1.9375Z"/>
</mask>
<path fill-rule="evenodd" clip-rule="evenodd" d="M18 1.9375C18.3107 1.9375 18.5625 2.18934 18.5625 2.5V5.4375H21.5C21.8107 5.4375 22.0625 5.68934 22.0625 6C22.0625 6.31066 21.8107 6.5625 21.5 6.5625H18.5625V9.5C18.5625 9.81066 18.3107 10.0625 18 10.0625C17.6893 10.0625 17.4375 9.81066 17.4375 9.5V6.5625H14.5C14.1893 6.5625 13.9375 6.31066 13.9375 6C13.9375 5.68934 14.1893 5.4375 14.5 5.4375H17.4375V2.5C17.4375 2.18934 17.6893 1.9375 18 1.9375Z" fill="white" fill-opacity="0.6"/>
<path d="M18.5625 5.4375H17.5625V6.4375H18.5625V5.4375ZM18.5625 6.5625V5.5625H17.5625V6.5625H18.5625ZM18.5625 9.5L19.5625 9.5V9.5H18.5625ZM17.4375 6.5625H18.4375V5.5625H17.4375V6.5625ZM17.4375 5.4375V6.4375H18.4375V5.4375H17.4375ZM19.5625 2.5C19.5625 1.63706 18.8629 0.9375 18 0.9375V2.9375C17.7584 2.9375 17.5625 2.74162 17.5625 2.5H19.5625ZM19.5625 5.4375V2.5H17.5625V5.4375H19.5625ZM21.5 4.4375H18.5625V6.4375H21.5V4.4375ZM23.0625 6C23.0625 5.13706 22.3629 4.4375 21.5 4.4375V6.4375C21.2584 6.4375 21.0625 6.24162 21.0625 6H23.0625ZM21.5 7.5625C22.3629 7.5625 23.0625 6.86294 23.0625 6H21.0625C21.0625 5.75838 21.2584 5.5625 21.5 5.5625V7.5625ZM18.5625 7.5625H21.5V5.5625H18.5625V7.5625ZM19.5625 9.5V6.5625H17.5625V9.5H19.5625ZM18 11.0625C18.8629 11.0625 19.5625 10.3629 19.5625 9.5L17.5625 9.5C17.5625 9.25838 17.7584 9.0625 18 9.0625V11.0625ZM16.4375 9.5C16.4375 10.3629 17.1371 11.0625 18 11.0625V9.0625C18.2416 9.0625 18.4375 9.25837 18.4375 9.5H16.4375ZM16.4375 6.5625V9.5H18.4375V6.5625H16.4375ZM14.5 7.5625H17.4375V5.5625H14.5V7.5625ZM12.9375 6C12.9375 6.86294 13.6371 7.5625 14.5 7.5625V5.5625C14.7416 5.5625 14.9375 5.75838 14.9375 6H12.9375ZM14.5 4.4375C13.6371 4.4375 12.9375 5.13706 12.9375 6H14.9375C14.9375 6.24162 14.7416 6.4375 14.5 6.4375V4.4375ZM17.4375 4.4375H14.5V6.4375H17.4375V4.4375ZM16.4375 2.5V5.4375H18.4375V2.5H16.4375ZM18 0.9375C17.1371 0.9375 16.4375 1.63706 16.4375 2.5H18.4375C18.4375 2.74162 18.2416 2.9375 18 2.9375V0.9375Z" fill="white" fill-opacity="0.6" mask="url(#path-2-outside-1_575_7109)"/>
</svg>
