<svg width="46" height="46" viewBox="0 0 46 46" fill="none" xmlns="http://www.w3.org/2000/svg">
<path d="M24.2588 4.61466C24.0221 4.13629 23.5342 3.8335 23 3.8335C22.4658 3.8335 21.9779 4.13629 21.7412 4.61466L16.283 15.648L4.07625 17.4282C3.54735 17.5054 3.10818 17.8758 2.94341 18.3836C2.77865 18.8915 2.91688 19.4488 3.29997 19.8211L12.1307 28.4032L10.0467 40.5271C9.95624 41.0532 10.1727 41.5849 10.6049 41.8988C11.0372 42.2126 11.6104 42.2542 12.0835 42.0059L23 36.2777L33.9165 42.0059C34.3896 42.2542 34.9628 42.2126 35.3951 41.8988C35.8273 41.5849 36.0438 41.0532 35.9533 40.5271L33.8693 28.4032L42.7 19.8211C43.0831 19.4488 43.2213 18.8915 43.0566 18.3836C42.8918 17.8758 42.4526 17.5054 41.9237 17.4282L29.717 15.648L24.2588 4.61466Z" fill="#FEC318"/>
</svg>
